<svg xmlns="http://www.w3.org/2000/svg" xmlns:xlink="http://www.w3.org/1999/xlink" viewBox="0 0 244.3 194.22"><defs><style>.cls-1{fill:#575756;}.cls-1,.cls-11,.cls-7{stroke:#000;}.cls-1,.cls-10,.cls-11,.cls-3,.cls-7{stroke-miterlimit:10;}.cls-1,.cls-10,.cls-11,.cls-7{stroke-width:0.5px;}.cls-2{fill:url(#linear-gradient);}.cls-10,.cls-3,.cls-7{fill:none;}.cls-10,.cls-3{stroke:#1d1d1b;}.cls-3{stroke-width:0.25px;}.cls-13,.cls-4{opacity:0.52;}.cls-4{fill:url(#linear-gradient-2);}.cls-5{fill:url(#linear-gradient-3);}.cls-15,.cls-6{opacity:0.19;}.cls-6{fill:url(#linear-gradient-4);}.cls-8{fill:#fff;opacity:0.21;}.cls-9{fill:url(#linear-gradient-5);}.cls-11{fill:#9d9d9c;}.cls-12{fill:url(#linear-gradient-6);}.cls-13{fill:url(#linear-gradient-7);}.cls-14{fill:url(#linear-gradient-8);}.cls-15{fill:url(#linear-gradient-9);}.cls-16{fill:url(#linear-gradient-10);}</style><linearGradient id="linear-gradient" x1="68.52" y1="101.14" x2="73.35" y2="213.47" gradientUnits="userSpaceOnUse"><stop offset="0" stop-color="#fff"/><stop offset="0.14" stop-color="#fbfbfb"/><stop offset="0.27" stop-color="#f1f1f1"/><stop offset="0.39" stop-color="#dedede"/><stop offset="0.51" stop-color="#c5c5c5"/><stop offset="0.63" stop-color="#a3a3a3"/><stop offset="0.74" stop-color="#7b7b7b"/><stop offset="0.85" stop-color="#4b4b4b"/><stop offset="0.96" stop-color="#141414"/><stop offset="1"/></linearGradient><linearGradient id="linear-gradient-2" x1="103.44" y1="83.38" x2="106.78" y2="191.72" xlink:href="#linear-gradient"/><linearGradient id="linear-gradient-3" x1="37.71" y1="98.75" x2="28.38" y2="172.08" xlink:href="#linear-gradient"/><linearGradient id="linear-gradient-4" x1="31.09" y1="139.24" x2="47.92" y2="164.74" gradientUnits="userSpaceOnUse"><stop offset="0" stop-color="#fff"/><stop offset="1"/></linearGradient><linearGradient id="linear-gradient-5" x1="68.4" y1="146.97" x2="75.77" y2="162.12" gradientUnits="userSpaceOnUse"><stop offset="0" stop-color="#fff"/><stop offset="0.09" stop-color="#f1f1f1"/><stop offset="0.26" stop-color="#cdcdcd"/><stop offset="0.49" stop-color="#939393"/><stop offset="0.77" stop-color="#434343"/><stop offset="0.99"/></linearGradient><linearGradient id="linear-gradient-6" x1="165.06" y1="123.89" x2="170.67" y2="254.2" xlink:href="#linear-gradient"/><linearGradient id="linear-gradient-7" x1="207.71" y1="103.2" x2="211.58" y2="228.93" xlink:href="#linear-gradient"/><linearGradient id="linear-gradient-8" x1="127.41" y1="121.18" x2="116.63" y2="205.88" xlink:href="#linear-gradient"/><linearGradient id="linear-gradient-9" x1="119.63" y1="167.8" x2="139.74" y2="198.27" xlink:href="#linear-gradient-4"/><linearGradient id="linear-gradient-10" x1="165.09" y1="176.75" x2="173.8" y2="194.65" xlink:href="#linear-gradient-5"/></defs><title>Asset 4</title><g id="Layer_2" data-name="Layer 2"><g id="Layer_2-2" data-name="Layer 2"><path class="cls-1" d="M129.53,7.17C125.53,1.26,117.28,1,117.28,1s-28-.5-30.19-.66-7.81.19-7.81.19L14.65,6.1C-1,9.82.28,25.94.28,25.94L3,84.35a25.52,25.52,0,0,0,5.91,1.54c4.13.71,28.05,6,31.42,6.8s19.13,4,19.38,4.12.95.5,3.91.29,13-1.16,13-1.16a5.43,5.43,0,0,0,2.3-1c1-.8,50-30.25,52.68-31.25,0,0,.51-13.65.51-14.49s1-26.57,1.1-29A20,20,0,0,0,129.53,7.17Z"/><path class="cls-2" d="M3,84.35a25.52,25.52,0,0,0,5.91,1.54c4.13.71,28.05,6,31.42,6.8s19.13,4,19.38,4.12.95.5,3.91.29,13-1.16,13-1.16a5.43,5.43,0,0,0,2.3-1c1-.8,50-30.25,52.68-31.25,0,0-3.14,39.29-3.21,40.1s-.68,8.19-5.37,12.25-41.44,37.63-42.63,38.63a94.4,94.4,0,0,1-8.68,5.87c-1.69.88-3.25,1.75-9.19,0S17.9,145.6,16.4,145s-7.87-2.56-8.69-11.5S3,84.35,3,84.35Z"/><ellipse class="cls-3" cx="100.28" cy="88.28" rx="2.97" ry="1.59" transform="matrix(0.34, -0.94, 0.94, 0.34, -16.65, 152.9)"/><path class="cls-4" d="M76.69,95.94s-.16,54.25,0,54.91,3.68,3.91,5.28,2.47L124,115.12s4.14-3.53,4.53-12.48,3.11-38.95,3.11-38.95S87.69,89.14,79,94.94A5.18,5.18,0,0,1,76.69,95.94Z"/><path class="cls-5" d="M61.2,97.13s.49,54.72.74,55.56,1.63,7.67,4.32,8.71c0,0-43.51-13.85-48.68-16s-8.52-3.85-9.77-11S3,84.35,3,84.35Z"/><path class="cls-6" d="M7.81,134.4l54.13,18.29s1.3,7.67,4.32,8.71L16.4,145S8.36,142.92,7.81,134.4Z"/><path class="cls-3" d="M13.93,6.29S52.19,7.85,54.61,7.85,69,7.35,75,21.77c3.66,9,3,18.58,2.91,21.25s-.4,52.71-.4,52.71"/><path class="cls-3" d="M3,84.35S.78,32.27,1.11,29.6,1.28,21,5.78,18.69l41.5,2.41A14.46,14.46,0,0,1,58.69,32c2.25,9.58,2.51,65.11,2.51,65.11Z"/><polyline class="cls-7" points="2.81 79.79 61.16 91.77 77.58 90.35 131.8 60.27"/><path class="cls-8" d="M117,1.21,57.33,7.75c-.45.17-26.39-.73-41.4-1.52L79.39.73l.8,0L84.87.52H85Z"/><path class="cls-9" d="M61.94,152.69s9.42.33,14.75-1.84c0,0,.85,2.3,5.28,2.47,0,0-9.7,7.49-12.63,8.14s-3.08-.06-3.08-.06S63.86,162.52,61.94,152.69Z"/><path class="cls-10" d="M3,84.35a25.52,25.52,0,0,0,5.91,1.54c4.13.71,28.05,6,31.42,6.8s19.13,4,19.38,4.12.95.5,3.91.29,13-1.16,13-1.16a5.43,5.43,0,0,0,2.3-1c1-.8,50-30.25,52.68-31.25,0,0-3.14,39.29-3.21,40.1s-.68,8.19-5.37,12.25-41.44,37.63-42.63,38.63a94.4,94.4,0,0,1-8.68,5.87c-1.69.88-3.25,1.75-9.19,0S17.9,145.6,16.4,145s-7.87-2.56-8.69-11.5S3,84.35,3,84.35Z"/><path class="cls-11" d="M239.44,14.63c-4.87-6.86-14.92-7.22-14.92-7.22s-34.14-.58-36.77-.77-9.52.22-9.52.22L99.51,13.4C80.4,17.72,82,36.44,82,36.44l3.35,67.85a33,33,0,0,0,7.21,1.8c5,.82,34.16,7,38.27,7.88s23.29,4.7,23.6,4.8,1.17.58,4.77.34,15.89-1.36,15.89-1.36a6.74,6.74,0,0,0,2.79-1.16c1.17-.92,60.88-35.14,64.18-36.3,0,0,.62-15.85.62-16.83S243.9,32.6,244,29.77,244.32,21.49,239.44,14.63Z"/><path class="cls-12" d="M85.35,104.29a33,33,0,0,0,7.21,1.8c5,.82,34.16,7,38.27,7.88s23.29,4.7,23.6,4.8,1.17.58,4.77.34,15.89-1.36,15.89-1.36a6.74,6.74,0,0,0,2.79-1.16c1.17-.92,60.88-35.14,64.18-36.3,0,0-3.83,45.64-3.91,46.58s-.84,9.51-6.55,14.23S181.13,184.81,179.68,186a119.32,119.32,0,0,1-10.58,6.83c-2.06,1-4,2-11.19,0s-54.44-17.35-56.27-18-9.59-3-10.58-13.36S85.35,104.29,85.35,104.29Z"/><ellipse class="cls-3" cx="203.82" cy="108.85" rx="3.47" ry="1.92" transform="translate(28.21 259.02) rotate(-68.64)"/><path class="cls-13" d="M175.09,117.75s-.21,63,0,63.79,4.48,4.54,6.42,2.86L232.75,140s5-4.1,5.51-14.5,3.8-45.24,3.8-45.24-53.57,29.57-64.18,36.3A6.44,6.44,0,0,1,175.09,117.75Z"/><path class="cls-14" d="M156.21,119.13s.6,63.58.91,64.54,2,8.91,5.25,10.12c0,0-53-16.08-59.29-18.52s-10.38-4.47-11.9-12.84-5.83-58.14-5.83-58.14Z"/><path class="cls-15" d="M91.18,162.43l65.94,21.24s1.57,8.91,5.25,10.12l-60.73-19S91.85,172.32,91.18,162.43Z"/><path class="cls-3" d="M98.63,13.61s46.61,1.82,49.56,1.82,17.56-.58,24.87,16.16c4.46,10.46,3.65,21.59,3.55,24.69s-.49,61.23-.49,61.23"/><path class="cls-3" d="M85.35,104.29S82.61,43.79,83,40.69s.2-10,5.68-12.68l50.55,2.81s11.17,1.55,13.91,12.68,3.05,75.63,3.05,75.63Z"/><polyline class="cls-7" points="85.09 98.99 156.16 112.91 176.16 111.27 242.21 76.32"/><path class="cls-8" d="M224.17,7.71l-72.68,7.6c-.54.2-32.14-.85-50.42-1.77l77.3-6.38,1-.07,5.7-.18h.18Z"/><path class="cls-16" d="M157.12,183.67s11.47.39,18-2.13c0,0,1,2.68,6.42,2.86,0,0-11.81,8.71-15.39,9.46s-3.75-.07-3.75-.07S159.45,195.1,157.12,183.67Z"/><path class="cls-10" d="M85.35,104.29a33,33,0,0,0,7.21,1.8c5,.82,34.16,7,38.27,7.88s23.29,4.7,23.6,4.8,1.17.58,4.77.34,15.89-1.36,15.89-1.36a6.74,6.74,0,0,0,2.79-1.16c1.17-.92,60.88-35.14,64.18-36.3,0,0-3.83,45.64-3.91,46.58s-.84,9.51-6.55,14.23S181.13,184.81,179.68,186a119.32,119.32,0,0,1-10.58,6.83c-2.06,1-4,2-11.19,0s-54.44-17.35-56.27-18-9.59-3-10.58-13.36S85.35,104.29,85.35,104.29Z"/></g></g></svg>