<svg xmlns="http://www.w3.org/2000/svg" viewBox="0 0 262.72 286.4"><defs><style>.cls-1{fill:#ededed;}.cls-1,.cls-2,.cls-3,.cls-4{stroke:#9d9d9c;}.cls-1,.cls-11,.cls-12,.cls-2,.cls-3,.cls-4{stroke-miterlimit:10;}.cls-1,.cls-11,.cls-2,.cls-3,.cls-4{stroke-width:0.25px;}.cls-11,.cls-12,.cls-2{fill:none;}.cls-3{fill:#c6c6c6;}.cls-4,.cls-6,.cls-9{fill:#fff;}.cls-5,.cls-7{fill:#1d1d1b;}.cls-5,.cls-6{fill-rule:evenodd;}.cls-8{opacity:0.13;}.cls-10{opacity:0.61;}.cls-11,.cls-12{stroke:#1d1d1b;}.cls-12{stroke-width:0.1px;}</style></defs><title>Asset 3</title><g id="Layer_2" data-name="Layer 2"><g id="Layer_2-2" data-name="Layer 2"><path class="cls-1" d="M73.24,32.24s-.25-4.69,5-7.5,25.63-11.38,31.81-12.63,14.13-3.37,24.07-3,17.5-1.56,19.68-2.68,11.65-4.34,12.44-4.79A7.24,7.24,0,0,1,170.37.47c2.08,0,18-.42,21.12-.33s21.88.66,28.67,1.5S244,5.14,249.37,6.39s6.87,1.54,7.78,2.19a5.87,5.87,0,0,1,1.94,3.72c.31,1.75,1.71,16.5,2.06,19.6s1.28,22.28,1.28,26.65.37,12.81,0,20.31-3.13,40-3.44,44.94c-.37,6-3.37,29.19-3.5,29.94a12.14,12.14,0,0,1-2,4.5c-1.28,1.81-20.9,28-20.9,28L202.8,224.8s-3.65,5.53-8.31,5.41c-2.49-.07-17.51-.54-30.37-1.81-11.18-1.11-21-3-23.07-3.22s-11.54-2.15-21.59-4.85-20.88-6.23-25.81-8.68a3.22,3.22,0,0,1-2.41-2.75c-.22-2.25-2.28-14.16-3.19-16.82S82,165.33,80,161.52c-1.84-6.37-7.75-26.28-8.81-31.12s-2.94-16.57-3.6-23.63a355.29,355.29,0,0,1,.82-39.41A324.68,324.68,0,0,1,73.24,32.24Z"/><path class="cls-2" d="M78.49,109.68a259,259,0,0,0,44.31,10.5c24,3.4,52.82,2.56,52.82,2.56s12.81,1.25,14.56,1.06,5.87.38,8.69-2.31c1.3-1.25,15.64-12,30.06-24.13,16.44-13.81,33.16-29.1,33.64-29.54,0-3.71-.14-7-.14-9.27,0-4.37-.94-23.56-1.28-26.65s-1.75-17.85-2.06-19.6a5.87,5.87,0,0,0-1.94-3.72c-.91-.65-2.45-.94-7.78-2.19S227,2.47,220.16,1.64,194.58.22,191.49.14s-19,.37-21.12.33a7.24,7.24,0,0,0-4.13,1.17c-.79.45-10.25,3.66-12.44,4.79s-9.75,3.06-19.68,2.68-17.88,1.75-24.07,3S83.49,21.93,78.24,24.74s-5,7.5-5,7.5a324.68,324.68,0,0,0-4.87,35.12,355.29,355.29,0,0,0-.82,39.41S74.74,108.86,78.49,109.68Z"/><path class="cls-2" d="M175.43,79.22l3-42a19.7,19.7,0,0,1,2-6.09c6.81-13.83-3.63-15.47-13.91-17.85-4.66-1.08-24.8-2-40.68.44A178.17,178.17,0,0,0,86.12,24.86c-2.82,1.32-2.57,5.07-2.57,5.07L79.78,72.38"/><path class="cls-3" d="M79,109.8l-.06-24.69c.41-4.87.73-10.28,1-14.78L85.8,30.86s.57-3.39,2.86-4.31,40.08-12.44,63.46-9.12,26.56,8.81,25.5,14.06c0,0-.79,3.4-1,4.35a11.65,11.65,0,0,0-.17,3.09c0,.36-.69,24.18-1.11,46.87-.33,18.32.26,35.33.32,36.94a352,352,0,0,1-51.2-2.34C97.12,117.05,79,109.8,79,109.8Z"/><path class="cls-3" d="M79,109.8a149.55,149.55,0,0,0,13.79,52.46c12.67,26.17,21.59,43.25,29.42,50.25s11.5,9.67,17.83,9.58a27.77,27.77,0,0,0,22.84-13.16c6.08-10,15.25-26.19,13.5-63.68l-.71-22.51s-31.25,0-52.82-2.56S79,109.8,79,109.8Z"/><path class="cls-2" d="M258.88,11.42a41.91,41.91,0,0,1-18.08,9.71c-9.58,2.25-9.81-1.29-20.89,2.38-5.16,1.71-16.16,9.41-21.65,13.39a7,7,0,0,0-2.86,6.34c.1,1.08.22,2.37.34,3.85.42,5,1,75.79,1,75.79a11.67,11.67,0,0,0,3.3-2.36c1-.92,15.23-11.66,29.9-24C246,83,262.57,67.82,262.57,67.82s-.7-21.43-1-30S258.88,11.42,258.88,11.42Z"/><path class="cls-2" d="M196.74,122.88s1.17,27.55,2.17,34.3,5.33,58.47,1.17,70.65c0,0,3.34-3.83,6.8-8.3s46.64-61.29,46.64-61.29,1.15-.33,2.33-7.22c.57-3.27,2.72-21.71,4.19-40.73,1.62-20.94,2.53-42.47,2.53-42.47L239.71,88.16l-18.77,15.78s-20.66,16.67-22.26,17.69Z"/><ellipse class="cls-4" cx="123.82" cy="64.01" rx="12.33" ry="20.74" transform="translate(47.26 180.49) rotate(-84.02)"/><path class="cls-4" d="M160.26,137.59c-.88,5.37-17.36,9.76-36.77,6.6S88.37,132,89.24,126.68s18-5.07,37.41-1.91S161.13,132.23,160.26,137.59Z"/><path class="cls-5" d="M106.48,62.25a.42.42,0,0,1,.37.1c.09,0,.08,0,.11.12a.33.33,0,0,1,.05.16.46.46,0,0,1-.37.53c-.39.05-.6-.21-.52-.6a.41.41,0,0,1,.36-.31Zm3.31-3a.33.33,0,0,1,.39.28.35.35,0,0,1-.55.32,1.49,1.49,0,0,1-.12-.2.34.34,0,0,1,.28-.4Zm.39-.72a2,2,0,0,0-.5.17,1.19,1.19,0,0,0-.52.41,1.69,1.69,0,0,0-.27,1.48c.12.39.07.81-.44.76a5.87,5.87,0,0,0-1-.22,5.6,5.6,0,0,0-.59.07l-.49.17a2.23,2.23,0,0,0-.41.27,3.7,3.7,0,0,0-.28.28,2.5,2.5,0,0,0-.55,1.33c0,.16,0,.26,0,.42a2.68,2.68,0,0,0,.34,1,2,2,0,0,0,.71.69,2.3,2.3,0,0,0,3.39-1.28,2.14,2.14,0,0,0,0-1.39.88.88,0,0,0,0-.15c0-.15-.36-.58,0-.85s.76.21,1.54-.13a1.68,1.68,0,0,0,.54-.37,1.85,1.85,0,0,0,.39-.81,1.47,1.47,0,0,0-.13-1,1.55,1.55,0,0,0-1-.86,1.73,1.73,0,0,0-.64,0Z"/><path class="cls-5" d="M117.72,62.44a1.44,1.44,0,0,1-.65.89,1.47,1.47,0,0,1-1.72-.06,1.5,1.5,0,0,1-.54-1.62,2.11,2.11,0,0,1,.26-.52,1.54,1.54,0,0,1,.91-.57,1.63,1.63,0,0,1,.66,0,1.6,1.6,0,0,1,.89.65c.2.33.1.2.22.59a1.44,1.44,0,0,1,0,.62Zm-4,.29L113.43,66a4,4,0,0,0,.92.1c.09-.57.17-1.63.23-2.23.11,0,.06,0,.13.07l.1.07.23.15a2.27,2.27,0,0,0,2.06.18,1.37,1.37,0,0,0,.58-.31l.12-.07a3.15,3.15,0,0,0,.36-.37l.07-.09a1.4,1.4,0,0,0,.22-.38,2.17,2.17,0,0,0,.23-.94,3,3,0,0,0-.13-.9,2.5,2.5,0,0,0-1.71-1.57,3.58,3.58,0,0,0-.37-.06,2.3,2.3,0,0,0-2,.79l-.32.38a4.43,4.43,0,0,0-.41,1.92Z"/><path class="cls-5" d="M134.45,65.78c-.07.74-.16,1.53-.22,2.27l.53.06c.33,0,.27,0,.29-.12l.21-2.16c.08-.79,1-.61,1.27-.37a.52.52,0,0,1,.14.51l-.21,2.14c0,.22,0,.18.29.21.61.06.51.08.54-.2l.2-2.07c0-.47.33-.58.76-.53a.65.65,0,0,1,.47.15.46.46,0,0,1,.15.22,2.64,2.64,0,0,1,0,.92l-.14,1.43c0,.34-.17.28.62.36.24,0,.18.05.24-.48,0-.24.2-1.85.18-2a1.26,1.26,0,0,0-.2-.67,1.46,1.46,0,0,0-1.24-.74,1.6,1.6,0,0,0-1.14.29,1.25,1.25,0,0,0-.3-.26,1.67,1.67,0,0,0-.77-.25,1.63,1.63,0,0,0-1.12.28,1.53,1.53,0,0,0-.51,1Z"/><path class="cls-5" d="M132.11,64.79l.28,0,.29.16a1.17,1.17,0,0,1,.08,1.84c-.22.19-.2.12-.36.21a1.33,1.33,0,0,1-1-.1,1,1,0,0,1-.42-.46,1.11,1.11,0,0,1-.09-.19,1.45,1.45,0,0,1,0-.48,1.16,1.16,0,0,1,.8-1,.66.66,0,0,1,.48-.06Zm-2,1.12a2.85,2.85,0,0,0,0,.41,3.58,3.58,0,0,0,.09.35,1.17,1.17,0,0,0,.17.29l.09.14a1.94,1.94,0,0,0,1.87.71,1.91,1.91,0,0,0,.83-.41c.13-.1.07-.05.18-.18a1.81,1.81,0,0,0,.48-1.24,1.5,1.5,0,0,0-.11-.69l0-.12s0,0,0,0l-.13-.19a2.94,2.94,0,0,0-.2-.26,1.91,1.91,0,0,0-1.74-.57,1.72,1.72,0,0,0-.9.48,2.61,2.61,0,0,0-.41.52,2.35,2.35,0,0,0-.2.81Z"/><path class="cls-5" d="M121.37,63.12c0,.07-.09.84-.13,1.15-.09,1,.06,1.75-.86,1.66-.41,0-.63-.18-.67-.55s.25-2.31.22-2.41,0,0-.1-.07l-.47,0c-.16,0-.2,0-.22.09a2.85,2.85,0,0,0,0,.29,21.28,21.28,0,0,0-.18,2.37,1.5,1.5,0,0,0,.44.76,1.83,1.83,0,0,0,1.9.2,1.38,1.38,0,0,0,.58-.66,22.7,22.7,0,0,0,.28-2.37c.05-.44.09-.4-.16-.42a2,2,0,0,0-.58,0Z"/><path class="cls-5" d="M129.17,66.66l-.14.06a1,1,0,0,1-1-.09,1.19,1.19,0,0,1,.77-2.18.93.93,0,0,1,.44.16l.13.1c.13.13.13.11.25,0s.42-.27.27-.41a1.51,1.51,0,0,0-.65-.4l-.17,0a1.84,1.84,0,0,0-1.76.48,1.89,1.89,0,0,0-.2.2,1.74,1.74,0,0,0-.35.91,1.7,1.7,0,0,0,.21,1.11,1.83,1.83,0,0,0,1.15.94,1.69,1.69,0,0,0,1.15-.09c.58-.24.38-.29.3-.39l-.2-.3a.18.18,0,0,0-.09-.08Z"/><path class="cls-5" d="M123.59,64.71a.74.74,0,0,1,.35-.64,1.23,1.23,0,0,1,.38-.08c.34-.05.34.26.4-.63a1.2,1.2,0,0,0-.66-.09,1.35,1.35,0,0,0-1.23.95c-.11.36-.22,1.93-.28,2.52,0,.19,0,.18.16.2.69.06.65.11.67-.14Z"/><path class="cls-5" d="M110.83,64.3a.26.26,0,0,1,0-.2c.32-.32.64.33.22.39a.18.18,0,0,1-.18-.06,1,1,0,0,1-.09-.13Zm1.65.62a1.14,1.14,0,0,0,0-.49,1.65,1.65,0,0,0-.16-.36,1,1,0,0,0-.62-.46.89.89,0,0,0-.51,0,1,1,0,0,0-.84.77,1.06,1.06,0,0,0,.13.89,1.11,1.11,0,0,0,1.52.31,1.16,1.16,0,0,0,.45-.65Z"/><path class="cls-5" d="M125.46,63.43c0,.23-.29,2.92-.34,3.41,0,.33-.1.31.24.34a2.55,2.55,0,0,0,.54,0c.06-.31.38-3.63.36-3.7a.53.53,0,0,0-.2-.05c-.17,0-.45,0-.6,0Z"/><path class="cls-5" d="M125.83,61.84c-.19.09-.15,0-.28.23a.59.59,0,0,0,.13.78.6.6,0,0,0,.47,0,.59.59,0,0,0,.12-1,.57.57,0,0,0-.44-.07Z"/><path class="cls-6" d="M106.48,62.25a.41.41,0,0,0-.36.31c-.08.39.13.65.52.6a.46.46,0,0,0,.37-.53.33.33,0,0,0-.05-.16c0-.08,0-.07-.11-.12a.42.42,0,0,0-.37-.1Z"/><path class="cls-6" d="M109.79,59.29a.34.34,0,0,0-.28.4,1.49,1.49,0,0,0,.12.2.35.35,0,0,0,.55-.32.33.33,0,0,0-.39-.28Z"/><path class="cls-6" d="M110.83,64.3a1,1,0,0,0,.09.13.18.18,0,0,0,.18.06c.42-.06.1-.71-.22-.39a.26.26,0,0,0,0,.2Z"/><path class="cls-5" d="M140.28,63.19a.68.68,0,0,1-.13,1.36.68.68,0,1,1,.13-1.36Zm0,.1a.58.58,0,1,1-.64.52.58.58,0,0,1,.64-.52Zm-.4.94.07-.78.33,0a.4.4,0,0,1,.18,0,.15.15,0,0,1,.08.08.17.17,0,0,1,0,.12.17.17,0,0,1-.06.14.34.34,0,0,1-.16.06l.07.07a1.05,1.05,0,0,1,.08.13l.08.17-.18,0-.1-.18a.44.44,0,0,0-.07-.12l-.05,0-.07,0h0l0,.32Zm.2-.43h.25a.05.05,0,0,0,.05,0,.08.08,0,0,0,0-.05.08.08,0,0,0,0-.07.06.06,0,0,0-.05,0l-.11,0h-.12Z"/><path class="cls-7" d="M102.42,132.64c0,.08,0,.12-.14.11l-.57-.07a.24.24,0,0,1-.17-.11l-.48-1.12-.56-.07-.39,1c0,.06-.08.09-.18.08l-.51-.07c-.11,0-.15-.06-.12-.13l1-2.68c0-.06.08-.08.18-.07l1.25.16c1,.12,1.44.45,1.37,1s-.5.85-1.27.87Zm-.8-2.53L101,130l-.35.89.61.07c.66.09,1,0,1-.41S102.11,130.18,101.62,130.11Z"/><path class="cls-7" d="M106.11,131.62a1.16,1.16,0,0,1,0,.18l-.14.34c0,.07-.08.09-.17.08L104,132l0,.08a.28.28,0,0,0,0,.15c0,.25.14.37.56.43a1.25,1.25,0,0,0,.64-.08.19.19,0,0,1,.23,0l.14.2c0,.06,0,.11,0,.14a2.36,2.36,0,0,1-1.07.1c-.86-.11-1.29-.42-1.23-.87a.65.65,0,0,1,0-.2l.23-.57c.2-.54.72-.76,1.55-.65S106.17,131.18,106.11,131.62Zm-1.94,0,0,.06,1.17.15,0-.07a.89.89,0,0,0,0-.14c0-.21-.12-.34-.45-.38S104.29,131.27,104.17,131.58Z"/><path class="cls-7" d="M109.51,131.42c.13,0,.17.06.1.13l-1.76,1.83a.27.27,0,0,1-.2.06l-.54-.07c-.1,0-.15-.05-.16-.12l-.27-2.09c0-.08,0-.1.16-.09l.46.06c.1,0,.16.05.16.12l.11,1.56h0l1.27-1.41a.18.18,0,0,1,.2,0Z"/><path class="cls-7" d="M112.36,132.43s0,.11,0,.17l-.14.35c0,.06-.08.08-.18.07l-1.73-.22,0,.08a1.13,1.13,0,0,0,0,.15c0,.25.15.38.57.43a1.25,1.25,0,0,0,.64-.08.19.19,0,0,1,.23.05l.15.2c0,.06,0,.11-.06.14a2.23,2.23,0,0,1-1.07.1c-.85-.11-1.29-.41-1.23-.87a.73.73,0,0,1,0-.2l.22-.57c.21-.54.73-.75,1.55-.65S112.42,132,112.36,132.43Zm-1.94-.05,0,.06,1.18.15,0-.07a.37.37,0,0,0,0-.14c0-.21-.13-.34-.46-.38A.61.61,0,0,0,110.42,132.38Z"/><path class="cls-7" d="M112.94,132.64c.21-.54.69-.75,1.44-.66a2.48,2.48,0,0,1,.78.24c.08.05.08.1,0,.15l-.2.17a.23.23,0,0,1-.23,0,1,1,0,0,0-.38-.13c-.35,0-.57.06-.68.33l-.5,1.31c0,.06-.08.09-.18.08l-.43-.06c-.12,0-.16-.06-.13-.13Z"/><path class="cls-7" d="M114.86,134.17c-.07,0-.06-.1,0-.14l.26-.16a.22.22,0,0,1,.23,0,1.49,1.49,0,0,0,.72.26c.42,0,.64,0,.67-.21s-.12-.22-.56-.33c-.68-.18-.92-.37-.88-.71s.66-.71,1.53-.6a2.47,2.47,0,0,1,1,.3c.07.05.07.1,0,.14l-.25.16a.2.2,0,0,1-.22,0,1.5,1.5,0,0,0-.54-.18c-.45-.05-.68,0-.7.21s.11.2.52.3c.71.18,1,.38.91.73s-.64.72-1.49.61A2.44,2.44,0,0,1,114.86,134.17Z"/><path class="cls-7" d="M120.75,133.5a.39.39,0,0,1,0,.18l-.13.35c0,.06-.08.08-.18.07l-1.73-.22,0,.08a1.13,1.13,0,0,0,0,.15c0,.25.15.38.57.43a1.25,1.25,0,0,0,.64-.08.18.18,0,0,1,.22,0l.15.2c0,.06,0,.11,0,.14a2.2,2.2,0,0,1-1.06.1c-.87-.11-1.3-.41-1.24-.87a1.42,1.42,0,0,1,0-.2l.23-.57c.21-.54.73-.75,1.55-.65S120.81,133.06,120.75,133.5Zm-1.94,0v.06l1.16.15,0-.07a.39.39,0,0,0,0-.14c0-.21-.12-.34-.45-.38A.63.63,0,0,0,118.81,133.46Z"/><path class="cls-7" d="M122.92,133.39c.26-.68.91-.95,2-.81s1.49.51,1.42,1.06a.86.86,0,0,1-.06.23l-.35.9c-.26.68-.93.95-2,.81s-1.49-.5-1.42-1.06a.86.86,0,0,1,.06-.23Zm.49,1a1.8,1.8,0,0,0,0,.19c0,.31.18.5.68.56s.93-.1,1.09-.53l.31-.8a.65.65,0,0,0,0-.2c0-.31-.18-.49-.67-.55s-.94.1-1.11.53Z"/><path class="cls-7" d="M126.31,135.64c-.06,0-.06-.1,0-.14l.25-.15a.2.2,0,0,1,.23,0,1.57,1.57,0,0,0,.72.26c.42,0,.65,0,.67-.21s-.11-.22-.55-.33c-.68-.17-.93-.37-.88-.71s.66-.71,1.52-.6a2.41,2.41,0,0,1,1,.3c.07.05.08.1,0,.15l-.24.15a.2.2,0,0,1-.22,0,1.37,1.37,0,0,0-.55-.17c-.44-.06-.68,0-.71.2s.12.2.53.3c.71.18,1,.38.92.74s-.65.71-1.49.61A2.59,2.59,0,0,1,126.31,135.64Z"/><path class="cls-7" d="M134.11,135.19a.6.6,0,0,1-.06.19l-.5,1.29c0,.06-.08.09-.17.07l-.43-.05c-.12,0-.17-.06-.14-.14l.49-1.26a.33.33,0,0,0,0-.13c0-.21-.11-.33-.43-.37a.6.6,0,0,0-.69.36l-.49,1.28c0,.07-.08.09-.17.08l-.43-.06c-.13,0-.17-.06-.14-.13l.49-1.26a.74.74,0,0,0,0-.14c0-.2-.12-.32-.43-.36a.6.6,0,0,0-.69.36l-.49,1.28c0,.06-.08.09-.18.08l-.43-.06c-.11,0-.16-.06-.13-.14l.5-1.3c.2-.53.69-.74,1.47-.64a1.35,1.35,0,0,1,.9.38h0a1.56,1.56,0,0,1,1-.14C133.78,134.48,134.16,134.76,134.11,135.19Z"/><path class="cls-7" d="M137.39,135.64a.58.58,0,0,1,0,.18l-.24.61c-.2.54-.73.75-1.57.64s-1.2-.41-1.15-.84a.7.7,0,0,1,.05-.18l.24-.61c.21-.54.73-.75,1.57-.65S137.45,135.2,137.39,135.64Zm-1,.64.19-.54a.48.48,0,0,0,0-.14c0-.22-.13-.34-.46-.39a.62.62,0,0,0-.76.38l-.21.54c0,.05,0,.09,0,.14,0,.22.13.34.46.39A.65.65,0,0,0,136.39,136.28Z"/><path class="cls-7" d="M137.52,137.08c-.06-.05-.06-.1,0-.14l.27-.15a.18.18,0,0,1,.22,0,1.53,1.53,0,0,0,.72.26c.42.05.65,0,.68-.21s-.12-.22-.56-.33c-.69-.17-.93-.37-.88-.71s.66-.71,1.52-.6a2.41,2.41,0,0,1,1,.3q.1.08,0,.15l-.24.15a.2.2,0,0,1-.22,0,1.41,1.41,0,0,0-.56-.17c-.44-.06-.67,0-.7.2s.12.2.53.3c.71.18,1,.38.91.74s-.64.71-1.49.61A2.59,2.59,0,0,1,137.52,137.08Z"/><path class="cls-7" d="M140.53,137.66c-.12,0-.16-.06-.13-.13l.76-1.95c0-.07.08-.09.18-.08l.43.06c.11,0,.16.05.12.13l-.74,1.95c0,.07-.09.09-.18.08Zm.84-2.8c0-.18.24-.29.5-.26s.42.17.4.33-.26.28-.52.25S141.35,135,141.37,134.86Z"/><path class="cls-7" d="M141.9,137.65c-.07-.05-.07-.11,0-.15l.26-.15a.2.2,0,0,1,.22,0,1.5,1.5,0,0,0,.72.26c.43.06.65,0,.68-.21s-.12-.22-.56-.33c-.69-.17-.92-.37-.88-.71s.66-.71,1.52-.6a2.53,2.53,0,0,1,1,.3c.07.05.08.1,0,.15l-.23.15a.21.21,0,0,1-.23,0,1.54,1.54,0,0,0-.56-.17q-.65-.09-.69.21c0,.12.11.19.53.3.7.18.95.37.91.73s-.65.72-1.5.61A2.67,2.67,0,0,1,141.9,137.65Z"/><g class="cls-8"><path class="cls-9" d="M88.81,28.87c7.09.9,14.2.9,21.33,1.13s14,1.37,21.08,2,13.93.22,20.88.88a125.43,125.43,0,0,1,23.2,4.54c1.26.37,3.42-1.45,1.67-2A130.82,130.82,0,0,0,156,31c-7.32-.87-14.59-.61-21.92-1.06-7-.43-13.93-1.74-21-2-7.77-.31-15.53-.22-23.27-1.2-1.43-.18-3,1.87-1,2.12Z"/></g><g class="cls-8"><path class="cls-9" d="M176.53,36.45c-13.27-2.28-26.4-4.51-39.82-5.66q-21.3-1.8-42.63-3c-.73,0-3.34,1.26-1.84,1.34q21.35,1.18,42.63,3c13.42,1.14,26.56,3.38,39.82,5.66.74.13,3.36-1.08,1.84-1.34Z"/></g><g class="cls-8"><path class="cls-9" d="M93.53,28.51c16.57,1.8,33.22,1.76,49.76,3.84,1.26.16,3-1.61,1.07-1.86-16.54-2.08-33.19-2-49.76-3.83-1.26-.14-3,1.64-1.07,1.85Z"/></g><g class="cls-8"><path class="cls-9" d="M148,30.17c-18.67-1.41-37.29-3-56-3.51-.7,0-3.32,1.26-1.84,1.3,18.71.52,37.34,2.1,56,3.52.71.05,3.34-1.2,1.85-1.31Z"/></g><g class="cls-10"><path class="cls-9" d="M178.52,37c1.65.91,3.89,1,5.72,1.36,2,.39,5.7.41,5.51,3.23-.09,1.34,2.84.85,2.92-.29.39-5.83-8.59-4-11.88-5.84-1-.53-3.59.82-2.27,1.54Z"/></g><g class="cls-10"><path class="cls-9" d="M179.44,37c2.75.63,5.47,1.26,8.27,1.64,1.21.17,3-1.52,1.08-1.78-2.57-.35-5.08-1-7.61-1.55a2.27,2.27,0,0,0-2.05.55c-.38.45-.35,1,.31,1.14Z"/></g><g class="cls-10"><path class="cls-9" d="M184.87,38.29a8.88,8.88,0,0,1,3.55.76,2.3,2.3,0,0,0,2.05-.27c.37-.24.9-.87.25-1.16a11.89,11.89,0,0,0-4.73-1,2.23,2.23,0,0,0-1.91.8c-.33.58.28.88.79.88Z"/></g><g class="cls-10"><path class="cls-9" d="M193.22,44.29q-.1-1.57-.36-3.12c-.1-.64-3,0-2.9.77q.25,1.56.36,3.12c0,.57,3,.06,2.9-.77Z"/></g><g class="cls-10"><path class="cls-9" d="M193.1,46a11.8,11.8,0,0,0-.06-2.06c0-.56-3,0-2.89.77a12.89,12.89,0,0,1,0,2.06c0,.44,2.86.09,2.9-.77Z"/></g><g class="cls-10"><path class="cls-9" d="M76.82,28.91a40.24,40.24,0,0,1,4.91-.21,2,2,0,0,0,1.89-.86c.28-.61-.25-1.12-.86-1.13a46.33,46.33,0,0,0-5.65.21c-.6.06-1.52.42-1.61,1.12s.79.92,1.32.87Z"/></g><g class="cls-10"><path class="cls-9" d="M83.61,26.6a22,22,0,0,0-4.6-.39,3.29,3.29,0,0,0-2.05.55c-.41.33-.41.72.2.76a19.19,19.19,0,0,1,4.09.29,3,3,0,0,0,2-.34c.27-.15,1-.68.32-.87Z"/></g><g class="cls-10"><path class="cls-9" d="M81.54,25.83a13.21,13.21,0,0,0-4.81.29c-.55.14-1.36.66-1.19,1.33s1.18.68,1.7.55a9,9,0,0,1,3.27-.16A1.9,1.9,0,0,0,82.4,27c.3-.65-.27-1.07-.86-1.14Z"/></g><g class="cls-10"><path class="cls-9" d="M83.06,27.32a18.81,18.81,0,0,0-3-.1c-.58,0-1.52.42-1.62,1.08s.82.8,1.3.79A14.14,14.14,0,0,1,82,29.2a2,2,0,0,0,1.9-.84c.35-.63-.3-1-.83-1Z"/></g><g class="cls-10"><path class="cls-9" d="M80.35,27.34a6.55,6.55,0,0,0-2.29-.23c-.59,0-1.52.42-1.62,1.09s.81.84,1.3.81a2.52,2.52,0,0,1,.89.12,2.13,2.13,0,0,0,2.05-.55.7.7,0,0,0-.33-1.24Z"/></g><path class="cls-9" d="M86.38,27.23l-.32-.18a2.4,2.4,0,0,0-2,.3c-.43.24-.84.68-.28,1l.31.18a2.4,2.4,0,0,0,2-.3c.43-.24.84-.68.29-1Z"/><path class="cls-9" d="M87.08,27.55a1.33,1.33,0,0,0-.34-.16,3.07,3.07,0,0,0-2,.37c-.32.15-.94.54-.35.77l0,0c.42.34,1.43,0,1.87-.16.19-.07,1.26-.51.86-.84Z"/><g class="cls-10"><path class="cls-9" d="M192.34,38.09A149.07,149.07,0,0,1,209.13,25.5c4.58-2.92,9-4.95,14.51-5.55,3.32-.36,6.67-.33,10-.55,8.58-.57,17.6-2.58,22.85-10,.19-.26-2.36-.19-2.86.52-8.62,12.13-25.27,6.23-37.48,10.7-9.81,3.59-18.58,11-26.43,17.67-.59.51,2.08.24,2.62-.22Z"/></g><g class="cls-10"><path class="cls-9" d="M193.68,51.29a53.59,53.59,0,0,1-.76-8.85c.12-4.55,2.76-7,6.24-9.55,1.58-1.16-.86-1.66-1.83-1-2.77,2-5.76,4.25-6.89,7.66-1.25,3.8-.2,8.62.34,12.48.15,1,3.06.37,2.9-.78Z"/></g><path class="cls-1" d="M54.33,197c-6.22.54-10.59,5.36-11.2,6.21A181.31,181.31,0,0,1,28,221.4c-7.8,8-19.83,20.36-19.83,20.36-2.17,2-6.29,6.57-6.93,8.38A17.71,17.71,0,0,0,.56,255c-.12,1.22-.21,1.71-.41,3.77S.82,261,.82,261l.16.1c-.89,3.78,1.13,8.51,5.48,10.74,4.08,2.1,8.68,2.15,11.47.05H19a13.41,13.41,0,0,0,8.84-2c3.65-2.46,6.68-8.49,6.93-8.95.53-1,27.52-36.11,29.16-38.38S69.23,216,69.23,216C72.34,203,60.55,196.42,54.33,197Z"/><path class="cls-7" d="M17.88,265.84l-1-.13a6.66,6.66,0,0,1-.69,2L15,269.53l.86,1.1A6,6,0,0,0,17.88,265.84Z"/><path class="cls-7" d="M12.88,260.88l.53-1.32a9.94,9.94,0,0,1,2.68,2.11,6,6,0,0,1,1.66,3l-1.26,0A10.84,10.84,0,0,0,15,262.44,7,7,0,0,0,12.88,260.88Z"/><path class="cls-7" d="M6,258.6a9.25,9.25,0,0,1,2.91-.46,8.86,8.86,0,0,1,3.48.76l-.66,1a12.49,12.49,0,0,0-2.19-.47,5,5,0,0,0-2.24.19Z"/><path class="cls-7" d="M5,259.28l.86,1a4.55,4.55,0,0,0-1.52,3.82l-1.58-.39S2.86,260.49,5,259.28Z"/><path class="cls-7" d="M4.59,265.3l-.89-.12s.08,2.76,2.05,3.89C5.75,269.07,4.49,266.15,4.59,265.3Z"/><path class="cls-7" d="M8.33,270.58s4,.2,5.54-.46l.77,1S12.28,272.2,8.33,270.58Z"/><path class="cls-11" d="M10.1,267.6c-.32.57-1.21.64-2,.24A1.46,1.46,0,0,1,7.35,266c.33-.57,1.11-.66,1.89-.26A1.53,1.53,0,0,1,10.1,267.6Z"/><path class="cls-11" d="M12.4,268.76c-1,1.72-3.38,2.05-5.41,1a4,4,0,0,1-1.74-5.32c1-1.72,3.09-2.1,5.11-1.05S13.37,267,12.4,268.76Z"/><path class="cls-7" d="M1.78,259.06s3-6.53,12.45-2.19c9.65,5.71,5.83,12.7,4.31,14.47,0,0,6.58-6.37-1.5-13.58a11.75,11.75,0,0,0-6.35-2.84C5.49,254.15,1.93,257.91,1.78,259.06Z"/><path class="cls-7" d="M15.65,255.12c-5.18-2.67-10.51-1.85-12.86,2.31-.09.16-.16.33-.24.49,2.46-3.87,7.6-4.6,12.59-2s7.7,9.09,5.34,13.29c-.1.18-.22.34-.33.51a7.24,7.24,0,0,0,.94-1.29C23.44,264.22,20.83,257.78,15.65,255.12Z"/><path class="cls-7" d="M10.84,262.89a4.14,4.14,0,0,0-4.72.25,4.33,4.33,0,0,1,4.34.05c2.16,1.11,3.2,3.88,2.17,5.71a3.42,3.42,0,0,1-.69.82A3.19,3.19,0,0,0,13,268.6C14,266.77,13,264,10.84,262.89Z"/><path class="cls-11" d="M19.63,269.93c-2.21,3.93-8.1,4.49-13.17,1.87s-7-8.63-4.79-12.56,7.37-4.61,12.45-2S21.83,266,19.63,269.93Z"/><path class="cls-11" d="M.85,260.63a11.93,11.93,0,0,1,1.39-4.14c3.1-5.51,9.48-6.93,15.42-3.88s8.53,11.14,5.43,16.65a6.46,6.46,0,0,1-3.41,2.67"/><path class="cls-12" d="M1.56,249.43c4.32-6.51,12.77-8.05,20.84-3.9,7.77,4,11.75,13.63,9.12,20.83"/><path class="cls-7" d="M25.48,260.23l1.77.66a10.36,10.36,0,0,1-.32,6.52,7.71,7.71,0,0,1-3.71,4.17l-1.57-.46s2.29-.93,3.42-4.68A11.69,11.69,0,0,0,25.48,260.23Z"/><path class="cls-7" d="M7.29,249.85s-.82-.94-1.63-.8S1.11,253.18.56,255s-.78,5.68.26,6A11.31,11.31,0,0,1,2,254.82C3.38,252.31,6.75,250.14,7.29,249.85Z"/><path class="cls-7" d="M10.89,239s5.86-4.35,12.88-2.15,10.49,5.75,12.08,9.17l1.3-1.54s-3.33-6.68-10.62-8.63-10.66-.56-13.47.92Z"/><path class="cls-7" d="M37.48,243.87l1.34-1.53s-3.45-6.48-10.24-8.52-11.41-.4-13.13.46l-1.85,1.89s6.1-3.22,12.09-1.29S35.11,239.86,37.48,243.87Z"/><path class="cls-7" d="M39.21,241.93,40,241a19.39,19.39,0,0,0-9.29-8.22c-6.29-2.48-12-1-14.17.35l-.87.91a17,17,0,0,1,11-1.3A17.77,17.77,0,0,1,39.21,241.93Z"/><path class="cls-7" d="M23.06,226.46s6.16-2.86,12-.56,9,5.71,10.16,8.57l15.5-19.29s-3.46-6.66-10.81-8.43-10.76,1.68-10.76,1.68-6,7.39-7.81,9.34Z"/><path class="cls-12" d="M43.13,203.17s8.53-6.89,16.75-1.57,8.6,11.78,7.51,16.61"/><path class="cls-1" d="M80.31,200.75c-6,.84-10,5.86-10.57,6.74a177.18,177.18,0,0,1-13.87,18.95c-7.19,8.41-18.3,21.3-18.3,21.3-2,2.07-5.8,6.87-6.34,8.71a18.66,18.66,0,0,0-.43,4.87c-.06,1.23-.13,1.73-.22,3.8s.74,2.18.74,2.18l.16.09a10.08,10.08,0,0,0,5.78,10.49c4,1.91,8.5,1.74,11.11-.49h0l1-.05A12.64,12.64,0,0,0,57.91,275c3.42-2.63,6.09-8.81,6.31-9.28.47-1,25.06-37.42,26.54-39.76s4.82-6.81,4.82-6.81C98,205.9,86.31,199.92,80.31,200.75Z"/><path class="cls-7" d="M48.06,271.38l-1-.09a7,7,0,0,1-.58,2l-1,1.86.89,1.06A6.08,6.08,0,0,0,48.06,271.38Z"/><path class="cls-7" d="M43,266.65l.45-1.34a9.26,9.26,0,0,1,2.69,2,6.09,6.09,0,0,1,1.74,2.94l-1.22.08a10.88,10.88,0,0,0-1.53-2.2A6.77,6.77,0,0,0,43,266.65Z"/><path class="cls-7" d="M36.22,264.69a8.83,8.83,0,0,1,2.8-.6,8.5,8.5,0,0,1,3.4.6l-.6,1a11.45,11.45,0,0,0-2.14-.37,4.65,4.65,0,0,0-2.16.3Z"/><path class="cls-7" d="M35.3,265.41l.88,1a4.61,4.61,0,0,0-1.3,3.89l-1.55-.32S33.27,266.73,35.3,265.41Z"/><path class="cls-7" d="M35.16,271.46l-.87-.08s.21,2.76,2.16,3.79C36.45,275.17,35.1,272.31,35.16,271.46Z"/><path class="cls-7" d="M39,276.56s3.89,0,5.34-.72l.79,1S42.92,278,39,276.56Z"/><path class="cls-11" d="M40.6,273.5a1.42,1.42,0,0,1-1.92.34,1.47,1.47,0,0,1-.82-1.85c.29-.59,1-.72,1.82-.35A1.55,1.55,0,0,1,40.6,273.5Z"/><path class="cls-11" d="M42.88,274.56c-.86,1.76-3.18,2.21-5.19,1.26a4.05,4.05,0,0,1-1.93-5.24c.86-1.77,2.9-2.24,4.91-1.29S43.74,272.79,42.88,274.56Z"/><path class="cls-7" d="M32.16,265.35s2.59-6.67,12-2.78c9.6,5.26,6.21,12.44,4.82,14.28,0,0,6.09-6.69-2-13.52a11.18,11.18,0,0,0-6.28-2.54C35.54,260.26,32.26,264.2,32.16,265.35Z"/><path class="cls-7" d="M45.42,260.75c-5.14-2.42-10.26-1.36-12.35,2.92-.08.17-.14.34-.21.5,2.21-4,7.16-5,12.1-2.63,5.1,2.41,7.86,8.74,5.76,13-.09.19-.2.36-.3.53a6.74,6.74,0,0,0,.86-1.33C53.37,269.5,50.56,263.17,45.42,260.75Z"/><path class="cls-7" d="M41.11,268.76a3.9,3.9,0,0,0-4.56.47,4.05,4.05,0,0,1,4.21-.15c2.14,1,3.26,3.73,2.35,5.61a3.17,3.17,0,0,1-.64.84,3,3,0,0,0,1-1.17C44.38,272.49,43.25,269.76,41.11,268.76Z"/><path class="cls-11" d="M49.93,275.39c-2,4-7.64,4.86-12.67,2.49s-7.16-8.32-5.19-12.34,6.93-5,12-2.59S51.89,271.36,49.93,275.39Z"/><path class="cls-11" d="M31.34,267a12.22,12.22,0,0,1,1.16-4.2c2.76-5.66,8.87-7.38,14.76-4.61s8.75,10.74,6,16.4a6.24,6.24,0,0,1-3.18,2.83"/><path class="cls-12" d="M31.53,255.73c3.89-6.72,12-8.66,20-4.89,7.71,3.64,12,13.09,9.76,20.42"/><path class="cls-7" d="M55.17,265.4l1.74.58a10.74,10.74,0,0,1,0,6.54,7.64,7.64,0,0,1-3.41,4.35l-1.54-.39s2.18-1,3.11-4.84A12.2,12.2,0,0,0,55.17,265.4Z"/><path class="cls-7" d="M37.1,255.88s-.84-.91-1.62-.73-4.22,4.34-4.68,6.17-.5,5.72.52,6a11.65,11.65,0,0,1,.87-6.2A15.78,15.78,0,0,1,37.1,255.88Z"/><path class="cls-7" d="M40.1,244.81s5.48-4.63,12.38-2.76,10.41,5.27,12.1,8.61l1.19-1.6s-3.52-6.52-10.67-8.14-10.34-.06-13,1.56Z"/><path class="cls-7" d="M66.07,248.48l1.23-1.6s-3.63-6.32-10.3-8-11.06.14-12.69,1.08l-1.71,2s5.77-3.52,11.66-1.86S63.6,244.58,66.07,248.48Z"/><path class="cls-7" d="M67.65,246.45l.75-1a19,19,0,0,0-9.36-7.8c-6.2-2.18-11.7-.39-13.7,1l-.81.94a16.07,16.07,0,0,1,10.64-1.81A17.17,17.17,0,0,1,67.65,246.45Z"/><path class="cls-7" d="M51.33,231.74s5.85-3.16,11.61-1.13,9,5.29,10.23,8.1l14.16-20s-3.65-6.51-10.85-7.94-10.35,2.19-10.35,2.19-5.43,7.67-7.14,9.71Z"/><path class="cls-12" d="M69.74,207.49s8-7.29,16.15-2.35,8.85,11.38,8,16.26"/><path class="cls-1" d="M105.66,205.14c-5.79,1.33-9.29,6.66-9.75,7.58a180.4,180.4,0,0,1-11.94,20c-6.31,9-16.06,22.71-16.06,22.71-1.79,2.23-5.08,7.31-5.46,9.18a19.25,19.25,0,0,0,0,4.88c0,1.23,0,1.73.1,3.79s.92,2.11.92,2.11l.16.07a10.08,10.08,0,0,0,6.55,9.94c4.11,1.56,8.46,1,10.82-1.42h0l1-.14a12.23,12.23,0,0,0,8.09-3.08c3.11-2.9,5.2-9.26,5.37-9.75.38-1,21.29-39.29,22.54-41.75s4.13-7.17,4.13-7.17C123.41,208.76,111.45,203.8,105.66,205.14Z"/><path class="cls-7" d="M80.18,278h-1a7.09,7.09,0,0,1-.4,2.09L78,282.05l1,1A6.13,6.13,0,0,0,80.18,278Z"/><path class="cls-7" d="M74.83,273.76l.33-1.37A9.11,9.11,0,0,1,78,274.14a6.18,6.18,0,0,1,2,2.77l-1.19.18A10.41,10.41,0,0,0,77,275,6.6,6.6,0,0,0,74.83,273.76Z"/><path class="cls-7" d="M68,272.39a8.42,8.42,0,0,1,2.69-.84,8.2,8.2,0,0,1,3.38.31l-.5,1a11,11,0,0,0-2.13-.19,4.44,4.44,0,0,0-2.08.48Z"/><path class="cls-7" d="M67.2,273.18l.94.87a4.64,4.64,0,0,0-.94,4l-1.54-.19S65.33,274.66,67.2,273.18Z"/><path class="cls-7" d="M67.58,279.2h-.86s.44,2.72,2.44,3.58C69.16,282.78,67.6,280.05,67.58,279.2Z"/><path class="cls-7" d="M71.78,284s3.82-.31,5.17-1.17l.85.9S75.72,285.05,71.78,284Z"/><path class="cls-11" d="M73.07,280.77c-.23.61-1.06.79-1.85.5a1.48,1.48,0,0,1-1-1.77c.23-.61,1-.8,1.74-.5A1.55,1.55,0,0,1,73.07,280.77Z"/><path class="cls-11" d="M75.39,281.63c-.69,1.82-2.92,2.46-5,1.69a4.07,4.07,0,0,1-2.33-5.05c.69-1.82,2.64-2.47,4.69-1.7S76.08,279.8,75.39,281.63Z"/><path class="cls-7" d="M64.13,273.38s2-6.85,11.45-3.77c9.83,4.42,7.13,11.84,5.93,13.79,0,0,5.38-7.16-3.16-13.26a10.82,10.82,0,0,0-6.36-2C67,268,64.12,272.22,64.13,273.38Z"/><path class="cls-7" d="M76.69,267.69c-5.23-2-10.15-.48-11.82,3.95-.06.17-.11.34-.16.51,1.82-4.15,6.57-5.53,11.6-3.63,5.19,2,8.43,8,6.74,12.47-.07.19-.16.37-.24.55a7.31,7.31,0,0,0,.72-1.39C85.21,275.72,81.92,269.67,76.69,267.69Z"/><path class="cls-7" d="M73.17,276a3.79,3.79,0,0,0-4.43.86,3.92,3.92,0,0,1,4.1-.51c2.18.82,3.52,3.43,2.78,5.38a2.89,2.89,0,0,1-.55.89,3.07,3.07,0,0,0,.87-1.24C76.68,279.45,75.34,276.83,73.17,276Z"/><path class="cls-11" d="M82.35,281.86c-1.57,4.17-7,5.48-12.17,3.54s-7.71-7.66-6.13-11.83,6.35-5.51,11.47-3.57S83.93,277.7,82.35,281.86Z"/><path class="cls-11" d="M63.46,275.05a12.36,12.36,0,0,1,.77-4.27c2.22-5.86,8-8.08,14-5.82s9.48,9.93,7.26,15.79a6.18,6.18,0,0,1-2.86,3.08"/><path class="cls-12" d="M62.68,263.87c3.23-7,11-9.61,19.14-6.54,7.84,3,12.83,12,11.28,19.47"/><path class="cls-7" d="M86.62,271.5l1.75.43a10.87,10.87,0,0,1,.54,6.5,7.61,7.61,0,0,1-3,4.6l-1.54-.25s2-1.21,2.62-5.08A12.27,12.27,0,0,0,86.62,271.5Z"/><path class="cls-7" d="M68.14,263.55s-.9-.83-1.65-.58-3.75,4.67-4,6.52,0,5.73,1,5.9a11.82,11.82,0,0,1,.31-6.24A15.78,15.78,0,0,1,68.14,263.55Z"/><path class="cls-7" d="M70.12,252.3s5-5.06,11.87-3.78,10.63,4.36,12.56,7.54l1-1.7s-4-6.18-11.13-7.18-10.12.8-12.57,2.63Z"/><path class="cls-7" d="M95.83,253.76l1.06-1.69s-4.09-6-10.75-7.12S75.33,246,73.82,247.09l-1.49,2.1s5.33-4,11.22-2.83S93.08,250.09,95.83,253.76Z"/><path class="cls-7" d="M97.2,251.61l.65-1a18.78,18.78,0,0,0-9.82-7c-6.25-1.65-11.47.58-13.3,2.16l-.72,1a15.63,15.63,0,0,1,10.25-2.7A16.91,16.91,0,0,1,97.2,251.61Z"/><path class="cls-7" d="M80,238.36s5.44-3.62,11.25-2.09,9.22,4.5,10.69,7.19l12.12-21.1s-4.12-6.15-11.28-7-9.92,3-9.92,3-4.65,8.08-6.16,10.25Z"/><path class="cls-12" d="M95.91,212.72s7.14-7.92,15.58-3.7,9.63,10.57,9.22,15.49"/></g></g></svg>