<svg xmlns="http://www.w3.org/2000/svg" viewBox="0 0 322.55 249.83"><defs><style>
	.cls-1{fill:#575756;}
	.cls-1:hover{fill:red;}
	.cls-10:hover{fill:blue;}
	.cls-1,.cls-10,.cls-2,.cls-3,.cls-4{stroke:#000;stroke-miterlimit:10;}.cls-1,.cls-10{stroke-width:0.5px;}.cls-2{fill:#dadada;}.cls-2,.cls-3{stroke-width:0.25px;}.cls-3,.cls-4{fill:none;}.cls-5{opacity:0.22;}.cls-6,.cls-7,.cls-8{fill:#fff;}.cls-7{opacity:0.16;}.cls-8,.cls-9{opacity:0.54;}.cls-10{fill:#9d9d9c;}</style></defs><title>Prizma</title><g id="Layer_2" data-name="Layer 2"><g id="Layer_2-2" data-name="Layer 2"><path class="cls-1" d="M180.51,19.19l0,78.82s1.77,6.76,1,9.57-1.5,3.51-1.5,3.51-39,33.09-43.78,36.41-18,9.16-28,11.09S28.18,171,2.06,140a21.36,21.36,0,0,1-1.72-9.06,26.84,26.84,0,0,1,2-9.64l-2-90.09s-.51-8.34,1.27-11.84,13.19-6.62,14.25-7,6.54-.92,6.54-.92L70.59,2.22S92.71.59,97.91.32s21.63.31,23.67.44S149,2.26,149,2.26L152,3.41s13.69.18,17.29,1.07,6.92,1.19,10.65,5A40.57,40.57,0,0,1,180.51,19.19Z"/><path class="cls-2" d="M180,111.09s-39,33.09-43.78,36.41-18,9.16-28,11.09S28.18,171,2.06,140l0,43.41s-2.49,4.13.42,11.86C6,205.58,22.49,223,70.13,224.91s64.71-16.65,68.45-20.2,40-40,40-40,1.79-19.74,1.68-25C180.21,135.17,180,111.09,180,111.09Z"/><path class="cls-2" d="M93.05,9.33c8.33-.26,15.11.52,15.15,1.74s-6.67,2.42-15,2.68S78.1,13.22,78.06,12s6.67-2.42,15-2.67"/><path class="cls-3" d="M20.23,11.68,70.59,2.22S82.52,3,94.78,3c11-.07,22.75-1.27,26.3-2.21l28.31,1.53L152,3.41S148.71,5.77,155.44,7s17.05,2.33,17.05,2.33A235.57,235.57,0,0,1,132.1,22a251,251,0,0,0-36.26.38C74.42,24,66.17,28.86,66.17,28.86c-20.56,0-40.12-2.29-55.06-6.8,0,0,15.13-2.27,17-6C29.52,13.15,20.23,11.68,20.23,11.68Z"/><path class="cls-2" d="M65.05,34.37s-.16-4.31,2.53-6a4.06,4.06,0,0,1,.84-.4C72,26.7,87.78,23.11,98,22.77s28.16-1.19,32.8-.42,5.26,4,5.21,4.66,0,9.67,0,9.67c.52,7.51-60.08,9.76-69.57,7.13A2,2,0,0,1,65.35,42C65.41,39.73,65.05,34.37,65.05,34.37Z"/><path class="cls-2" d="M7.63,35.85S6.57,27,8.09,24.35c0,0,.62-2,3.61-2.39,0,0,12.24-2.19,14-4.28S23.82,12.61,19,12.22a12.58,12.58,0,0,0-5.43.75c-3,1.07-10.57,3.82-12,6.35S0,29.88.32,31.16,3.86,36.15,7.63,35.85Z"/><path class="cls-2" d="M70.59,2.22S88.47.89,96.29.4s24.23.32,24.79.35C121.08.75,107.67,4.27,70.59,2.22Z"/><path class="cls-2" d="M152,3.41s12.9-.08,19.08,1.44,8.86,4.62,8.86,4.62a25.06,25.06,0,0,1,.44,3.23,46.57,46.57,0,0,1,.18,6.49s-2.51,2.32-4.13,2c0,0,.37-7.36.11-8.07s-.48-3.42-4-3.82c-1.68-.19-7.68-.86-12.85-1.64C153.92,6.81,149.19,5.73,152,3.41Z"/><path class="cls-4" d="M180.53,98s.62,3.12-6,8-39.63,30.5-41.37,31.84-11.1,6-21.67,9-38.9,7-67,2S2.62,135.16,1.66,123.05"/><path d="M144.87,198.51a59.21,59.21,0,0,1-8.12,6.42,87.16,87.16,0,0,1-9,5.24,102.35,102.35,0,0,1-19.36,7.39,129.17,129.17,0,0,1-41.16,4,163.77,163.77,0,0,1-20.58-2.62,105.32,105.32,0,0,1-19.93-5.72c-6.38-2.64-12.6-6.05-17.43-11.09a25.83,25.83,0,0,1-3.2-4.1,30.47,30.47,0,0,1-2.48-4.56,23.57,23.57,0,0,1-1.58-10.18,23.34,23.34,0,0,0,1.75,10.1,32,32,0,0,0,2.54,4.49,27,27,0,0,0,3.24,4c4.8,4.95,11,8.3,17.35,10.88a105.71,105.71,0,0,0,19.86,5.57,172.51,172.51,0,0,0,20.5,2.5,128.34,128.34,0,0,0,41-3.74c3.33-.88,6.61-2,9.85-3.13a103,103,0,0,0,9.48-4.1,86.59,86.59,0,0,0,9-5.07A58.72,58.72,0,0,0,144.87,198.51Z"/><path class="cls-3" d="M65.05,34.37s-.16-4.31,2.53-6a4.06,4.06,0,0,1,.84-.4C72,26.7,87.78,23.11,98,22.77s28.16-1.19,32.8-.42a7.88,7.88,0,0,1,2.76.95A4.63,4.63,0,0,1,136.05,27c-.05.63,0,9.67,0,9.67.52,7.51-60.08,9.76-69.57,7.13A2,2,0,0,1,65.35,42C65.41,39.73,65.05,34.37,65.05,34.37Z"/><path d="M19.63,12a18.55,18.55,0,0,1,4.8,1.59,2.55,2.55,0,0,1,1.44,1.74c.09.33.45,2.11,0,2.25s-.35.45.09.33c1.43-.4.9-2.66.31-3.63a4.38,4.38,0,0,0-2.37-1.5,21.06,21.06,0,0,0-3.8-1.15c-.22,0-.85.3-.45.37Z"/><path d="M26.4,15c0-.46-.46-.76-.78-1.06a2.25,2.25,0,0,0-1.09-.68c-.23,0-.86.3-.45.38a2.1,2.1,0,0,1,1,.69c.27.25.58.48.62.87,0,.22.75.07.72-.2Z"/><path d="M25.61,14a4.32,4.32,0,0,0-1.17-.86c-.29-.14-.92.24-.56.42a3.72,3.72,0,0,1,1.07.76c.21.26.9,0,.66-.32Z"/><path d="M24.54,13.23a15.52,15.52,0,0,0-5.18-1.45c-.33,0-.76.43-.27.48A14.73,14.73,0,0,1,24,13.62c.25.13.9-.22.57-.39Z"/><path d="M22.18,12.47a8.92,8.92,0,0,1,2.89,1.23,3.32,3.32,0,0,1,1,2.72c0,.2.73.07.73-.19a3.41,3.41,0,0,0-1.05-2.81,9.31,9.31,0,0,0-3-1.28c-.2-.06-.86.24-.58.33Z"/><path d="M26.81,17.42c.63-.75,1.53-1.52,1-2.58a3.4,3.4,0,0,0-2.32-1.78c-.26,0-.86.36-.43.43A3,3,0,0,1,27,14.87c.61,1-.2,1.69-.79,2.39-.29.34.41.37.59.16Z"/><path d="M25.82,13.92c.35.16.58.9.66,1.22a1.74,1.74,0,0,1-.06,1.31c-.18.36.55.35.69.07a2.24,2.24,0,0,0,0-1.76,2.12,2.12,0,0,0-.91-1.32c-.29-.13-.83.29-.42.48Z"/><path d="M27.75,16.34c.46-.57.69-1.55-.07-2-.21-.13-.87.17-.57.36a1.07,1.07,0,0,1,.35.76,1.3,1.3,0,0,1-.39.86c-.2.26.53.22.68,0Z"/><path d="M27.27,14.94A2.1,2.1,0,0,1,27,16.62c-.2.26.53.21.68,0a2.47,2.47,0,0,0,.31-1.9c0-.24-.76-.08-.73.2Z"/><path d="M27.63,16.69a2.67,2.67,0,0,0,.57-1.41c0-.23-.71-.08-.72.11A2.46,2.46,0,0,1,27,16.72c-.17.2.54.13.67,0Z"/><path d="M28.22,16a1.23,1.23,0,0,0,.05-.57c0-.27-.76-.11-.72.19a.76.76,0,0,1-.05.45c-.09.29.64.19.72-.07Z"/><path d="M66.83,28.94a8.32,8.32,0,0,1,3.06-1.34c1-.33,2.07-.69,3.14-.93.45-.09.34-.49-.1-.4a46.42,46.42,0,0,0-4.5,1.32,6.6,6.6,0,0,0-2.19,1.2c-.32.28.39.32.59.15Z"/><path d="M66.36,29c.25,0,.78-.38.29-.38-.25,0-.78.38-.29.38Z"/><path d="M66,29c.14,0,.82-.28.48-.28-.14,0-.81.28-.48.28Z"/><path d="M65.86,29a2.64,2.64,0,0,0,.49,0c.11,0,.43-.05.48-.17s0-.13-.17-.12a1.82,1.82,0,0,1-.33,0,.82.82,0,0,0-.51.14c-.07.08-.13.16,0,.16Z"/><path d="M66.1,29.17h.42c.41,0,.55-.59.06-.55l-.23,0c-.17,0-.41,0-.47.22a.22.22,0,0,0,.22.31Z"/><path d="M65.52,29.09a2.71,2.71,0,0,0,.57,0c.35,0,.61-.44.11-.39H66a.6.6,0,0,0-.51.14c-.07.09-.12.22.07.24Z"/><path d="M73.06,26.7c1.36-.35,2.71-.72,4.07-1s2.46-.38,3.66-.77c.42-.14.34-.48-.09-.34-1.19.39-2.45.49-3.66.77-1.37.31-2.72.68-4.07,1-.43.11-.34.45.09.34Z"/><path d="M72.91,26.5a27.83,27.83,0,0,0,4.24-.91c1.17-.34,2.4-.4,3.54-.81.49-.17,0-.28-.25-.18-.93.33-2,.33-3,.61a31,31,0,0,1-4.44,1c-.3,0-.64.35-.13.28Z"/><path d="M81.06,24.32a63.83,63.83,0,0,0-7.72,1.75c-.43.13-.34.49.1.36A62.44,62.44,0,0,1,81,24.72c.34-.06.6-.49.1-.4Z"/><path d="M80.3,25.05a11.67,11.67,0,0,0,1.41-.27,9.22,9.22,0,0,1,1.59-.45c.21,0,.79-.33.31-.31a5.1,5.1,0,0,0-1.21.3,12,12,0,0,1-2,.45c-.3,0-.64.36-.13.28Z"/><path d="M80.77,24.64a14.18,14.18,0,0,0,1.94-.2c.11,0,.4-.09.41-.25s-.2-.18-.32-.16a12.83,12.83,0,0,1-1.75.19c-.14,0-.42,0-.48.2s.05.23.2.22Z"/><path d="M82.06,24.64c1-.28,2.09-.15,3.11-.43.44-.12.31-.62-.14-.5-1,.28-2.08.15-3.1.44-.45.12-.32.62.13.49Z"/><path d="M83.43,24.56a9.56,9.56,0,0,0,1.49-.29c.45-.11.31-.6-.14-.5a9.51,9.51,0,0,1-1.29.26c-.41,0-.56.55-.06.53Z"/><path d="M83.44,24.2c.59-.1,1.18-.18,1.78-.23.34,0,.61-.41.1-.37s-1.19.13-1.78.23c-.33.06-.61.46-.1.37Z"/><path d="M84.46,24.2,86.54,24c.32,0,.62-.39.12-.33l-2.08.25c-.32,0-.63.39-.12.33Z"/><path d="M85.38,24.21c.84-.16,1.69-.3,2.54-.4.39,0,.57-.56.08-.5-.92.11-1.84.26-2.74.44-.46.09-.33.55.12.46Z"/><path d="M86.54,23.81l3.21-.23c.39,0,.57-.51.08-.47l-3.21.22c-.39,0-.58.51-.08.48Z"/><path d="M85.05,23.9,88,23.64c.17,0,.79-.31.32-.27l-2.94.26c-.18,0-.79.31-.32.27Z"/><path d="M88.25,23.44c1.83-.16,3.68-.26,5.49-.6.28-.05.66-.33.14-.24a52.22,52.22,0,0,1-5.31.57c-.18,0-.79.31-.32.27Z"/><path d="M93.47,23.1c2.46-.21,4.91-.25,7.38-.3.41,0,.56-.53.06-.52-2.46,0-4.92.09-7.37.3-.41,0-.56.56-.07.52Z"/><path d="M96.06,22.66q3.6-.14,7.2-.13c.23,0,.78-.34.3-.34q-3.6,0-7.2.13c-.22,0-.78.36-.3.34Z"/><path d="M100,22.38h4.31c.26,0,.78-.38.29-.38h-4.31c-.25,0-.77.39-.29.39Z"/><path d="M100.88,22.76l2.21-.14c.41,0,.55-.57.06-.55l-2.21.14c-.42,0-.55.58-.06.55Z"/><path d="M102.89,22.49c2-.36,4.11-.16,6.16-.36.19,0,.79-.33.32-.28-2.12.21-4.24,0-6.35.38-.28.05-.64.35-.13.26Z"/><path d="M104,22.61l4.71-.36c.37,0,.59-.48.09-.44l-4.71.37c-.37,0-.59.47-.09.43Z"/><path d="M106.92,22.13c2.39.17,4.77-.12,7.17.05.2,0,.84-.33.45-.36-2.39-.16-4.78.13-7.17,0-.2,0-.84.32-.45.35Z"/><path d="M106.83,22.66c1.8-.17,3.61-.4,5.42-.42.39,0,.57-.48.08-.48-1.81,0-3.62.26-5.43.42-.38,0-.57.52-.07.48Z"/><path d="M109.2,22c1.5.08,3-.17,4.48-.14,2,.05,3.94.05,5.91,0,.23,0,.78-.37.3-.35-1.74.09-3.47.11-5.2.07s-3.36.2-5,.12c-.19,0-.84.32-.46.34Z"/><path d="M113.92,22.15c1.42.07,2.88-.08,4.31-.14.38,0,.58-.48.08-.46-1.36.06-2.76.2-4.13.13-.31,0-.75.44-.26.47Z"/><path d="M116.51,22.1c1.09-.07,2.17-.11,3.25-.14.4,0,.58-.5.08-.48-1.08,0-2.17.07-3.25.14-.39,0-.57.51-.08.48Z"/><path d="M119.62,22c1.95.15,4,.08,5.94.16.26,0,.78-.36.29-.38-2-.08-4,0-5.94-.16-.26,0-.78.35-.29.38Z"/><path d="M125.72,22c1,0,2,.05,3.05.1s2.55-.05,3.34.67c.14.12.79-.15.69-.25a3.92,3.92,0,0,0-2.54-.65c-1.36-.09-2.71-.14-4.07-.17-.15,0-.82.29-.47.3Z"/><path d="M132.75,22.71a.34.34,0,0,0-.14-.21s0,0,0,0a.6.6,0,0,1,.14.21s0,0,0,0Z"/><path d="M132.82,22.76l-.06-.21s0,0,0,0l.06.2Z"/><path d="M132.85,22.67l-.08-.11h0l.08.11Z"/><path d="M132.54,22.67a2.54,2.54,0,0,1,.16.28l.27-.13-.07-.09c-.07-.11-.34,0-.26.13l.05.08c.08.12.34,0,.27-.13l-.06-.11-.27.13.06.09c.06.1.33,0,.28-.1s-.13-.23-.15-.29l-.29.08a1.46,1.46,0,0,0,.16.3c.07.11.34,0,.26-.13l-.13-.25c-.06-.13-.34-.05-.29.08a2.7,2.7,0,0,0,.15.29l.27-.11,0-.09c-.07-.12-.34,0-.27.13l.06.11.27-.13-.06-.08-.26.13.06.09c.08.11.34,0,.27-.13s-.09-.18-.16-.28-.35,0-.27.13Z"/><path d="M133,22.86a.31.31,0,0,0-.11-.14c-.1-.1-.35.05-.22.17a.1.1,0,0,1,0,.05c0,.14.33.06.29-.08Z"/><path d="M64.52,29c.68,0,1.34.23,2,.21.09,0,.31-.14.12-.13-.65,0-1.3-.2-2-.21-.07,0-.33.12-.18.13Z"/><path d="M66.68,28.49a3.41,3.41,0,0,1-1.13.24c-.1,0-.31.16-.12.15a3.57,3.57,0,0,0,1.36-.29c.19-.07,0-.15-.11-.1Z"/><g class="cls-5"><path class="cls-6" d="M8.79,26.43C15.21,30.49,24.64,31.38,32,32.5a164,164,0,0,0,26,1.81c.63,0,3.28-1.22,1.88-1.2a160,160,0,0,1-25.5-1.75c-7.19-1.09-16.59-2-22.83-5.92-.7-.45-3.14.73-2.73,1Z"/></g><g class="cls-5"><path class="cls-6" d="M138.23,26a128.93,128.93,0,0,0,20.34-5.32c5.47-1.84,11.65-3.65,16.26-7.23,1.56-1.2-.76-2.28-1.93-1.37-4.61,3.57-11.25,5.41-16.71,7.14a124.67,124.67,0,0,1-17.72,4.6c-1.6.26-2.2,2.5-.24,2.18Z"/></g><path d="M132.24,22.2c.06,0,.15-.09,0-.09s-.15.09,0,.09Z"/><path d="M132.61,22.93c3.65,1.31,3.2,4.73,3.3,7.91,0,.25.73.1.72-.19,0-1.75.37-3.92-.51-5.53a5.27,5.27,0,0,0-2.94-2.55c-.22-.08-.88.25-.57.36Z"/><path d="M136,30.53c-.05,1.47.11,2.93,0,4.4a11.4,11.4,0,0,1-.21,1.93,2.56,2.56,0,0,1-2,2.18c-.47.17,0,.44.29.32a3.21,3.21,0,0,0,2.36-2c.62-2.21.21-4.63.28-6.88,0-.31-.72-.17-.72.08Z"/><path d="M136.82,30.74a7.08,7.08,0,0,0-.2-1.37c0-.23-.74-.08-.72.2a7.86,7.86,0,0,1,.2,1.26c0,.29.69.16.72-.09Z"/><path d="M136,29.36l-.07,2.18c0,.27.71.12.72-.1l.07-2.19c0-.26-.71-.11-.72.11Z"/><path d="M135.82,29.13a6.29,6.29,0,0,1,.15,1.06c0,.17.74,0,.72-.19a5.42,5.42,0,0,0-.15-1.06c0-.2-.77,0-.72.19Z"/><path d="M136,28.47q0,.71.06,1.41c0,.29.76.12.73-.19s-.06-.86-.06-1.3-.73-.21-.73.08Z"/><path d="M135.9,30.18l-.05,1.1c0,.33.72.2.73-.08l0-1.1c0-.33-.71-.2-.72.08Z"/><path d="M134.05,39.15A6.66,6.66,0,0,1,132,40a16,16,0,0,1-2.26.71c-.43.1-.35.39.08.29a23,23,0,0,0,2.91-1,5.21,5.21,0,0,0,2-.88c.18-.18-.52-.12-.66,0Z"/><path d="M134.8,38.68a3.35,3.35,0,0,1-1.06.55c-.43.13-.34.48.09.34a4.51,4.51,0,0,0,1.54-.79c.14-.1.06-.19-.06-.24a.63.63,0,0,0-.51.14Z"/><path d="M135.18,38.28a2.06,2.06,0,0,1-.8.57c-.46.2,0,.53.31.38a3,3,0,0,0,1.09-.77c.3-.33-.4-.4-.6-.18Z"/><path d="M130.31,40.4a12.83,12.83,0,0,1-4,.9c-1.24.19-2.48.35-3.72.45-.39,0-.58.52-.08.48,1.63-.14,3.25-.37,4.86-.63a10.75,10.75,0,0,0,3.28-.82c.44-.23,0-.56-.31-.38Z"/><path d="M130.05,40.59a29.26,29.26,0,0,0-2.93.6c-.43.12-.35.43.08.31a26.1,26.1,0,0,1,2.74-.56c.32,0,.62-.43.11-.35Z"/><path d="M129.79,40.8c-1.29.18-2.58.37-3.86.58-.32,0-.62.42-.12.34,1.29-.21,2.57-.4,3.86-.58.32,0,.62-.41.12-.34Z"/><path d="M129.37,40.94a29.42,29.42,0,0,0-6,1.06c-.44.13-.32.6.12.47a28.38,28.38,0,0,1,5.77-1c.4,0,.57-.55.08-.51Z"/><path d="M132.16,39.83c-8.74,2.61-17.73,3.51-26.79,4.22-.37,0-.6.46-.1.42,9.13-.72,18.19-1.63,27-4.25.43-.13.33-.52-.11-.39Z"/><path d="M105.65,44.07q-10.4.8-20.83.92c-.27,0-.77.41-.28.41q10.53-.12,21-.93c.36,0,.6-.43.1-.4Z"/><path d="M106,43.89q-10.67.8-21.35,1c-.24,0-.78.38-.29.37q10.68-.26,21.35-1c.24,0,.77-.4.29-.37Z"/><path d="M105.35,44.11l-1.5.2c-.32,0-.63.39-.12.32l1.5-.2c.31,0,.63-.39.12-.32Z"/><path d="M105.48,44.14l-.77,0c-.12,0-.43,0-.48.19s0,.16.18.15l.77,0c.12,0,.42,0,.48-.19s0-.16-.18-.15Z"/><path d="M104.37,44.12l-1.73.09c-.37,0-.58.47-.09.44l1.73-.09c.38,0,.59-.47.09-.44Z"/><path d="M105,44.07l-.72,0c-.31,0-.77.41-.28.45l.73.05c.3,0,.76-.42.27-.45Z"/><path d="M85.77,44.85c-5.54-.12-11.3.19-16.76-.79-.19,0-.84.26-.46.33,5.5,1,11.35.67,16.92.8.22,0,.78-.33.3-.34Z"/><path d="M84.65,45c-2.75,0-5.5-.06-8.24-.14-3.18-.09-8.09.29-10.55-2.07-.2-.19-.89.09-.67.3,1.75,1.68,4.54,1.9,6.88,2.07,4.08.3,8.22.26,12.31.29.3,0,.76-.45.27-.45Z"/><path d="M66.16,29.05c-1.44,1.61-1.65,3.52-1.68,5.63a31.15,31.15,0,0,0,.75,8.83c.08.25.8.05.73-.2a26.57,26.57,0,0,1-.73-6.84c0-2.61-.26-5.33,1.61-7.4.21-.23-.52-.19-.68,0Z"/><path d="M67.07,44c-.35-.25-.94-.54-1.13-.93s-.84-.06-.72.19c.24.5.85.8,1.28,1.12.22.16.88-.16.57-.38Z"/><path d="M65.18,43.34c.16.47.76.72,1.18.91a5.47,5.47,0,0,0,1.74.42c.16,0,.83-.29.46-.31A5,5,0,0,1,67,44c-.38-.17-1-.41-1.1-.82-.06-.19-.78,0-.72.19Z"/><path d="M69.42,44.46A4.4,4.4,0,0,1,67.6,44c-.19-.09-.75.21-.68.24a4.6,4.6,0,0,0,2,.49.77.77,0,0,0,.51-.13c.07-.08.13-.15,0-.15Z"/><path d="M70.25,44.6c-.81-.16-1.61-.35-2.41-.57-.26-.07-.86.31-.44.43.8.21,1.61.4,2.42.56a.58.58,0,0,0,.51-.13c.08-.12.1-.26-.08-.29Z"/><path d="M70,44.64c-1.14-.44-2.36-.53-3.5-1-.3-.13-.84.3-.42.48,1.14.48,2.36.57,3.5,1,.3.11.85-.32.42-.48Z"/><path d="M70.85,44.66c-1.72-.16-4.72-.53-5.52-2.47a11.78,11.78,0,0,1-.27-3.5c-.1-2.41-.3-5.13.53-7.44.14-.38-.58-.37-.69-.07-1.1,3-.72,6.84-.42,10s3.26,3.71,6.12,4c.35,0,.74-.47.25-.52Z"/><path d="M180.15,19.27c-.4.34-.81.68-1.24,1s-1.47,1-2.12.82c-.21-.06-.62.05-.58.32l0,.21c0,.31.76.13.72-.19l0-.21-.57.32c1.5.4,3.21-1.06,4.26-1.95.37-.32-.21-.51-.47-.3Z"/><path d="M180.09,19.57a16.35,16.35,0,0,1-1.44,1,5.48,5.48,0,0,1-2.05.62c-.41,0-.56.56-.06.54a6.24,6.24,0,0,0,2.19-.62,15.51,15.51,0,0,0,1.84-1.23c.41-.26-.18-.52-.48-.34Z"/><path d="M66,44.79c12.36,1.63,24.77,1.35,37.18.38,10.66-.83,22.3-1,32-5.89.44-.23,0-.56-.31-.38C124.88,44,112.41,44,101.34,44.84a172.41,172.41,0,0,1-35-.53c-.33,0-.75.42-.26.48Z"/><path d="M65.21,43.71A4.63,4.63,0,0,0,68,44.84c3.78.69,7.94.61,11.77.75,7.56.28,15.14.18,22.69-.29a184.56,184.56,0,0,0,22.13-2.51c3.68-.69,9.06-1.37,11.44-4.65.21-.29-.52-.27-.68,0-3.26,4.49-13.13,4.7-18.13,5.34-5.52.71-11.08,1.22-16.64,1.52q-8.79.48-17.59.26-3.93-.09-7.86-.33c-2.52-.14-7.24.28-9.23-1.47-.21-.19-.9.1-.67.3Z"/><path d="M66.37,45a236.23,236.23,0,0,0,36.57.37c10.2-.68,21.58-.89,31.1-5,1.4-.59.1-1.08-.81-.69-9.94,4.24-22.64,4.28-33.3,4.83a232.12,232.12,0,0,1-32.19-.58c-.57-.06-2.52.93-1.37,1Z"/><path d="M128.48,40.78c-5,1-10.06,1.77-15.12,2.52-1,.16-1.79,1.45-.29,1.23,5.25-.78,10.5-1.58,15.7-2.64,1.34-.27,1-1.38-.29-1.11Z"/><path class="cls-7" d="M125.47,42l3.3,97.37s1.25,9.65.5,11.83,2.24,51.45,6.93,54c.82,1,2.38-.48,2.38-.48l40-40s2.56-20.57,1.69-26-.87-26.77-.31-27.69,3.29-2.06.57-14.31,0-78.5,0-78.5L177.31,7.43s-32.46,12-45.21,14.6c1.87,1.21,4.7,1.5,4.35,10.7-.1,2.53.51,3.5-.39,4.88C134.47,40,130.41,41.8,125.47,42Z"/><path class="cls-8" d="M135.87,25.93c.09-.15,0-.29-.17-.35.07-.26-.3-.43-1-.31C123.84,27,113,28.46,102.08,29.48l-2.62.26a147,147,0,0,1-25.09,0,1.74,1.74,0,0,0-.32,0c-.68-.13-1.36-.25-2-.33a20.2,20.2,0,0,1-3-.3,1.76,1.76,0,0,0-.34,0L68.42,29c-.66-.22-3.24.84-2.38,1.13a1.39,1.39,0,0,0,.19.06c-.37.22-.55.43-.23.5a78.77,78.77,0,0,0,19.72,1.61q6.78,0,13.55-.57h.15a116.27,116.27,0,0,0,11.75-1.06,113.3,113.3,0,0,0,18.75-3,31.55,31.55,0,0,0,4.86-.86C135.72,26.59,136.05,26.18,135.87,25.93Z"/><g class="cls-9"><path class="cls-6" d="M9.32,22.53a11.4,11.4,0,0,1-2.77-2.12,4.17,4.17,0,0,1-.89-3.19c0-.79-2.88-.29-2.9.78a4.66,4.66,0,0,0,1.09,3.52A13.25,13.25,0,0,0,7,23.88c.76.44,3.44-.7,2.32-1.35Z"/></g><path class="cls-10" d="M321.11,43.85v78.82s1.77,6.76,1,9.57-1.5,3.51-1.5,3.51-39,33.09-43.77,36.41-18,9.16-28,11.08-80,12.42-106.17-18.63a21.6,21.6,0,0,1-1.72-9.06,26.71,26.71,0,0,1,2-9.64l-2-90.1s-.51-8.33,1.28-11.84,13.18-6.61,14.25-6.95,6.53-.93,6.53-.93l48.22-9.21s22.12-1.63,27.31-1.9,21.64.31,23.68.44,27.42,1.5,27.42,1.5l2.95,1.15s13.68.18,17.28,1.07,6.92,1.19,10.65,5A40.24,40.24,0,0,1,321.11,43.85Z"/><path class="cls-2" d="M320.59,135.75s-39,33.09-43.77,36.41-18,9.16-28,11.08-80,12.42-106.17-18.63l0,43.41s-2.5,4.13.42,11.86c3.54,10.36,20,27.82,67.67,29.69s64.72-16.66,68.46-20.2,40-40,40-40,1.79-19.74,1.69-25C320.81,159.82,320.59,135.75,320.59,135.75Z"/><path class="cls-2" d="M233.65,34c8.32-.25,15.1.53,15.15,1.75s-6.67,2.42-15,2.67-15.11-.52-15.15-1.74,6.67-2.42,15-2.68"/><path class="cls-3" d="M160.83,36.34l50.36-9.46s11.92.81,24.19.73c11-.06,22.75-1.26,26.29-2.2L290,26.94l2.57,1.13s-3.25,2.36,3.49,3.58,17,2.32,17,2.32a235.27,235.27,0,0,1-40.39,12.72,251,251,0,0,0-36.26.38c-21.42,1.62-29.67,6.45-29.67,6.45-20.55,0-40.12-2.29-55.06-6.8,0,0,15.14-2.27,17-6C170.12,37.81,160.83,36.34,160.83,36.34Z"/><path class="cls-2" d="M205.64,59s-.15-4.31,2.54-6a3.75,3.75,0,0,1,.83-.4c3.56-1.26,19.37-4.85,29.63-5.2s28.16-1.18,32.8-.41,5.25,4,5.2,4.66.05,9.67.05,9.67c.52,7.51-60.08,9.76-69.56,7.12a2,2,0,0,1-1.19-1.84C206,64.39,205.64,59,205.64,59Z"/><path class="cls-2" d="M148.22,60.51s-1.05-8.88.46-11.5c0,0,.62-2,3.61-2.39,0,0,12.24-2.19,14-4.28s-1.92-5.07-6.74-5.46a12.62,12.62,0,0,0-5.44.75c-3,1.07-10.56,3.82-12,6.34s-1.59,10.57-1.28,11.84S144.46,60.81,148.22,60.51Z"/><path class="cls-2" d="M211.19,26.88s17.87-1.33,25.7-1.82,24.23.32,24.78.35C261.67,25.41,248.27,28.93,211.19,26.88Z"/><path class="cls-2" d="M292.55,28.07s12.9-.09,19.07,1.44,8.86,4.62,8.86,4.62a23.74,23.74,0,0,1,.45,3.23,48.24,48.24,0,0,1,.18,6.49s-2.52,2.32-4.14,2c0,0,.38-7.35.12-8.06s-.48-3.42-4-3.83c-1.67-.19-7.68-.85-12.85-1.63C294.51,31.47,289.78,30.39,292.55,28.07Z"/><path class="cls-4" d="M321.12,122.67s.62,3.12-6,8-39.63,30.5-41.37,31.84-11.11,6-21.67,9-38.91,7-67,2-41.91-13.67-42.87-25.78"/><path d="M285.46,223.17a58.61,58.61,0,0,1-8.12,6.42,87.92,87.92,0,0,1-8.95,5.24A103,103,0,0,1,249,242.22a129.14,129.14,0,0,1-41.16,4,163.77,163.77,0,0,1-20.58-2.62,104.82,104.82,0,0,1-19.93-5.73c-6.37-2.63-12.6-6-17.43-11.08a27,27,0,0,1-3.2-4.1,32.39,32.39,0,0,1-2.48-4.56A23.57,23.57,0,0,1,142.67,208a23.49,23.49,0,0,0,1.76,10.1,30.61,30.61,0,0,0,2.54,4.49,26.35,26.35,0,0,0,3.23,4c4.8,4.95,11,8.29,17.35,10.87A104.23,104.23,0,0,0,187.41,243a170.4,170.4,0,0,0,20.51,2.51,128.27,128.27,0,0,0,41-3.74c3.33-.88,6.61-2,9.85-3.13a101.87,101.87,0,0,0,9.48-4.1,86.59,86.59,0,0,0,9-5.07A58.14,58.14,0,0,0,285.46,223.17Z"/><path class="cls-3" d="M205.64,59s-.15-4.31,2.54-6a3.75,3.75,0,0,1,.83-.4c3.56-1.26,19.37-4.85,29.63-5.2s28.16-1.18,32.8-.41a7.88,7.88,0,0,1,2.76,1,4.58,4.58,0,0,1,2.44,3.71c0,.63.05,9.67.05,9.67.52,7.51-60.08,9.76-69.56,7.12a2,2,0,0,1-1.19-1.84C206,64.39,205.64,59,205.64,59Z"/><path d="M160.32,36.74a19.84,19.84,0,0,1,4.62,1.51A2.54,2.54,0,0,1,166.46,40c.11.37.48,2,0,2.17s-.32.61.13.48c1.47-.42.84-2.93.19-3.86a4.81,4.81,0,0,0-2.35-1.41,20.62,20.62,0,0,0-3.81-1.15c-.35-.07-.74.42-.26.51Z"/><path d="M167,39.68c-.05-.47-.46-.77-.79-1.08a2.27,2.27,0,0,0-1.1-.7.53.53,0,0,0-.51.14c-.09.11-.1.28.08.32a2,2,0,0,1,1,.66c.26.25.57.47.61.86s.76.13.73-.2Z"/><path d="M166.21,38.68a4,4,0,0,0-1.18-.86c-.25-.13-.9.22-.56.4a3.56,3.56,0,0,1,1.07.77c.19.23.89-.05.67-.31Z"/><path d="M165.14,37.92a15.25,15.25,0,0,0-5.1-1.41c-.19,0-.84.3-.45.35a14.8,14.8,0,0,1,5,1.39c.18.09.85-.19.58-.33Z"/><path d="M162.85,37.18a9.74,9.74,0,0,1,2.67,1.09A3.19,3.19,0,0,1,166.66,41c0,.34.73.2.72-.07a3.59,3.59,0,0,0-1-2.83,8.83,8.83,0,0,0-3.12-1.37c-.27-.09-.85.29-.43.43Z"/><path d="M167.44,42c.65-.77,1.53-1.52.92-2.6a3.34,3.34,0,0,0-2.25-1.64c-.2,0-.84.3-.45.36a3.1,3.1,0,0,1,2.09,1.7c.36.89-.45,1.57-1,2.19-.18.22.53.16.67,0Z"/><path d="M166.34,38.52c.37.17.61.82.71,1.19a1.88,1.88,0,0,1,0,1.42c-.16.32.56.24.67,0a2.12,2.12,0,0,0,.09-1.64,2.21,2.21,0,0,0-.87-1.36c-.22-.1-.88.22-.57.36Z"/><path d="M168.34,41a1.5,1.5,0,0,0,.44-1,1.17,1.17,0,0,0-.45-1c-.19-.12-.82.17-.68.26A1,1,0,0,1,168,40a1.23,1.23,0,0,1-.37,1c-.16.2.54.13.67,0Z"/><path d="M167.86,39.6a2.14,2.14,0,0,1-.25,1.68c-.2.26.52.21.67,0a2.43,2.43,0,0,0,.31-1.9c0-.24-.76-.08-.73.2Z"/><path d="M168.19,41.47a2.8,2.8,0,0,0,.61-1.5c0-.37-.71-.27-.74.05a2.3,2.3,0,0,1-.47,1.24c-.3.35.39.45.6.21Z"/><path d="M168.81,40.59a1.15,1.15,0,0,0,.05-.55c0-.17-.74,0-.72.19a.75.75,0,0,1,0,.47c-.06.18.65.09.71-.11Z"/><path d="M207.37,53.7a8,8,0,0,1,2.9-1.32c1.12-.34,2.23-.73,3.37-1,.46-.1.32-.62-.14-.52-1.45.33-2.84.85-4.27,1.26a6.18,6.18,0,0,0-2.34,1.22c-.38.32.19.59.48.35Z"/><path d="M207,53.71c.26,0,.77-.4.28-.4-.26,0-.77.4-.28.4Z"/><path d="M206.63,53.63c.16,0,.82-.31.47-.31-.17,0-.83.31-.47.31Z"/><path d="M206.46,53.7a3.85,3.85,0,0,0,.48,0c.12,0,.43,0,.49-.18s-.05-.15-.18-.13a1.74,1.74,0,0,1-.32,0,.77.77,0,0,0-.52.14c-.07.09-.13.17.05.18Z"/><path d="M206.69,53.82a3,3,0,0,0,.42,0c.39,0,.57-.55.07-.5H207c-.16,0-.41,0-.48.22a.22.22,0,0,0,.22.29Z"/><path d="M206.2,53.79a2.09,2.09,0,0,0,.5,0c.37,0,.58-.52.08-.46a.81.81,0,0,1-.31,0c-.32,0-.76.43-.27.47Z"/><path d="M213.64,51.29c1.59-.41,3.18-.88,4.8-1.19a25.72,25.72,0,0,0,3-.64c.49-.16,0-.23-.25-.14-1.24.4-2.57.49-3.84.8s-2.52.64-3.79,1c-.41.11-.37.31.06.21Z"/><path d="M213.51,51.18a29.09,29.09,0,0,0,4.24-.91c1.16-.34,2.4-.41,3.54-.81.48-.17,0-.32-.26-.22-.94.34-2,.33-3,.61a29.69,29.69,0,0,1-4.44,1c-.32,0-.63.38-.12.32Z"/><path d="M221.65,49a63.83,63.83,0,0,0-7.72,1.75c-.43.13-.33.51.1.38a62.17,62.17,0,0,1,7.53-1.71c.34-.06.59-.51.09-.42Z"/><path d="M220.92,49.81c.51-.08,1-.17,1.51-.3a8.27,8.27,0,0,1,1.58-.44c.39,0,.58-.5.08-.47a6.39,6.39,0,0,0-1.35.35,11.49,11.49,0,0,1-1.74.38c-.38.06-.58.55-.08.48Z"/><path d="M221.36,49.27a15.58,15.58,0,0,0,1.93-.2c.32-.06.62-.43.12-.34a13.12,13.12,0,0,1-1.76.18c-.23,0-.78.37-.29.36Z"/><path d="M222.63,49.2c1-.29,2.08-.16,3.1-.44.43-.11.36-.4-.07-.28-1,.27-2.09.14-3.11.43-.42.12-.35.41.08.29Z"/><path d="M223.91,49.15a9.57,9.57,0,0,0,1.58-.3c.44-.1.34-.45-.09-.35a7.22,7.22,0,0,1-1.21.25c-.13,0-.42,0-.47.2s0,.21.19.2Z"/><path d="M224,48.9c.59-.1,1.19-.18,1.78-.23.38,0,.58-.5.09-.46s-1.19.13-1.78.23c-.14,0-.4.1-.41.27s.19.22.32.19Z"/><path d="M225.08,49l2.08-.25c.39-.05.56-.57.07-.51l-2.08.25c-.39.05-.57.57-.07.51Z"/><path d="M226,48.86c.84-.17,1.69-.3,2.54-.4.39-.05.58-.54.08-.48-.92.11-1.83.26-2.74.44-.45.08-.32.53.12.44Z"/><path d="M227.14,48.5l3.21-.23c.41,0,.56-.57.06-.54l-3.2.23c-.41,0-.56.57-.07.54Z"/><path d="M225.77,48.69l2.94-.26c.4,0,.56-.57.06-.53l-2.94.26c-.4,0-.56.57-.06.53Z"/><path d="M229,48.22c1.83-.16,3.69-.26,5.5-.6.46-.09.32-.56-.13-.48-1.74.33-3.54.41-5.3.57-.4,0-.57.55-.07.51Z"/><path d="M234,47.67c2.45-.21,4.91-.25,7.37-.3.23,0,.78-.35.3-.34-2.46,0-4.92.09-7.37.29-.22,0-.78.39-.3.35Z"/><path d="M236.76,47.38q3.56-.14,7.11-.13c.31,0,.76-.47.27-.47-2.43,0-4.87,0-7.3.14-.38,0-.58.48-.08.46Z"/><path d="M240.64,47.09H245c.33,0,.75-.5.26-.5H240.9c-.33,0-.75.49-.26.49Z"/><path d="M241.46,47.38l2.21-.13c.39,0,.58-.51.08-.48l-2.21.14c-.38,0-.57.5-.08.47Z"/><path d="M243.49,47.17c2-.36,4.11-.16,6.16-.36.21,0,.78-.37.31-.32-2.12.21-4.25,0-6.35.38-.3.05-.63.39-.12.3Z"/><path d="M244.6,47.27c1.57-.13,3.14-.24,4.72-.36.37,0,.59-.48.09-.44l-4.72.37c-.37,0-.59.47-.09.43Z"/><path d="M247.51,46.77c2.38.17,4.77-.12,7.17,0,.16,0,.83-.28.46-.31-2.39-.16-4.78.13-7.17,0-.17,0-.83.28-.46.31Z"/><path d="M247.41,47.28c1.77-.16,3.55-.39,5.33-.41.28,0,.77-.43.28-.42-1.84,0-3.68.26-5.51.42-.36,0-.6.46-.1.41Z"/><path d="M249.88,46.7c1.58.08,3.13-.16,4.71-.13,1.87,0,3.73,0,5.6,0,.26,0,.77-.43.28-.41-1.87.09-3.73.1-5.6,0-1.57,0-3.14.21-4.71.14-.27,0-.77.38-.28.4Z"/><path d="M254.51,46.82c1.43.07,2.89-.08,4.32-.14.39,0,.57-.5.07-.48-1.36,0-2.76.2-4.13.13-.32,0-.75.46-.26.49Z"/><path d="M257,46.67c1.08-.06,2.17-.11,3.25-.14.21,0,.79-.32.31-.31-1.08,0-2.17.08-3.25.14-.2,0-.78.34-.31.31Z"/><path d="M260.12,46.61c2,.15,4,.08,5.95.16.17,0,.83-.3.46-.32-2-.08-4,0-5.94-.16-.18,0-.84.29-.47.32Z"/><path d="M266.41,46.68c.93,0,1.86,0,2.79.1s2.69-.1,3.51.65c.17.15.85-.12.68-.27a4.31,4.31,0,0,0-2.8-.69c-1.3-.08-2.59-.13-3.89-.16-.25,0-.78.36-.29.37Z"/><path d="M273.35,47.37a.55.55,0,0,0-.14-.22s0,0,0,0a.52.52,0,0,1,.14.21,0,0,0,0,0,0,0Z"/><path d="M273.41,47.41l-.06-.2h0l.06.2a0,0,0,0,0,0,0Z"/><path d="M273.44,47.33l-.08-.11h0l.08.11Z"/><path d="M273.14,47.33a2.49,2.49,0,0,1,.15.28l.27-.13-.06-.09c-.08-.11-.35,0-.27.13l.06.08c.07.11.33,0,.26-.13l-.06-.11-.26.12,0,.1c.06.1.33,0,.28-.1l-.15-.29-.29.08a2.19,2.19,0,0,0,.16.3c.07.11.35,0,.27-.13l-.14-.25c-.05-.13-.34,0-.29.08s.09.16.15.29l.28-.11-.06-.09c-.06-.12-.33,0-.26.12l.06.12.26-.13-.05-.08-.27.13.06.09c.08.11.35,0,.27-.13s-.09-.18-.16-.28-.35,0-.26.13Z"/><path d="M273.59,47.52a.33.33,0,0,0-.11-.15c-.1-.09-.34.06-.22.18a.1.1,0,0,1,0,.05c.05.13.34,0,.29-.08Z"/><path d="M205.11,53.66c.68,0,1.35.23,2,.21.09,0,.32-.14.13-.13-.66,0-1.31-.2-2-.21-.07,0-.33.12-.19.13Z"/><path d="M207.27,53.14a3.09,3.09,0,0,1-1.12.25c-.1,0-.32.16-.12.15a3.76,3.76,0,0,0,1.35-.29c.19-.07,0-.15-.11-.11Z"/><g class="cls-5"><path class="cls-6" d="M149.38,51.09c6.42,4.06,15.85,4.95,23.19,6.07a162.73,162.73,0,0,0,26,1.8c.62,0,3.28-1.21,1.87-1.2A160,160,0,0,1,174.94,56c-7.19-1.09-16.59-2-22.83-5.92-.7-.45-3.13.73-2.73,1Z"/></g><g class="cls-5"><path class="cls-6" d="M278.83,50.65a129.12,129.12,0,0,0,20.33-5.33c5.48-1.83,11.66-3.64,16.27-7.22,1.55-1.2-.77-2.28-1.94-1.37-4.6,3.57-11.25,5.41-16.7,7.14a125.37,125.37,0,0,1-17.72,4.6c-1.61.26-2.2,2.5-.24,2.18Z"/></g><path d="M272.83,46.86c.06,0,.15-.09.06-.09s-.16.09-.06.09Z"/><path d="M273.15,47.53c3.7,1.33,3.26,4.75,3.35,8,0,.11.73,0,.73-.19-.05-1.72.33-3.76-.43-5.36a5.15,5.15,0,0,0-3-2.66,1,1,0,0,0-.68.24Z"/><path d="M276.62,55.25c-.09,2.71,1.08,7.3-2.2,8.48-.48.18,0,.37.28.25,1.2-.43,2.11-.92,2.41-2.23.5-2.21.16-4.47.24-6.7,0-.18-.72-.06-.73.2Z"/><path d="M277.41,55.4a7.06,7.06,0,0,0-.19-1.37c0-.22-.74-.08-.73.19a6.31,6.31,0,0,1,.2,1.28c0,.27.69.14.72-.1Z"/><path d="M276.56,54l-.08,2.19c0,.37.73.27.74-.06l.07-2.18c0-.38-.72-.27-.73.05Z"/><path d="M276.41,53.79a6.29,6.29,0,0,1,.15,1.06c0,.22.74.07.73-.19a5.43,5.43,0,0,0-.16-1.06c-.05-.24-.78-.05-.72.19Z"/><path d="M276.56,53.12a11.16,11.16,0,0,0,.06,1.42c0,.3.75.13.72-.19a11.21,11.21,0,0,1,0-1.3c0-.35-.73-.22-.73.07Z"/><path d="M276.49,54.84l0,1.11c0,.29.71.14.72-.1l.05-1.1c0-.29-.72-.15-.73.09Z"/><path d="M274.68,63.72a6.69,6.69,0,0,1-1.95.78,17.26,17.26,0,0,1-2.41.76c-.45.11-.33.53.11.43a21.52,21.52,0,0,0,2.75-.89,5.71,5.71,0,0,0,2.09-.92c.31-.3-.39-.36-.59-.16Z"/><path d="M275.44,63.24a3.34,3.34,0,0,1-1.12.59c-.44.13-.32.6.12.46a4.27,4.27,0,0,0,1.47-.75c.39-.3-.2-.51-.47-.3Z"/><path d="M275.78,63a2.2,2.2,0,0,1-.8.58c-.47.19-.05.49.3.35a3.09,3.09,0,0,0,1.09-.77c.29-.33-.41-.36-.59-.16Z"/><path d="M270.85,65.2a12.81,12.81,0,0,1-4,.87c-1.2.18-2.42.33-3.63.44-.19,0-.79.33-.32.29,1.67-.14,3.31-.38,5-.65a10.72,10.72,0,0,0,3.36-.85c.42-.23-.25-.19-.42-.1Z"/><path d="M270.64,65.22a26.26,26.26,0,0,0-2.93.61c-.44.11-.34.47.09.36a26.14,26.14,0,0,1,2.74-.57c.34-.05.6-.48.1-.4Z"/><path d="M270.36,65.38c-1.29.18-2.58.37-3.86.58-.38.06-.57.58-.07.5,1.28-.21,2.57-.41,3.86-.59.38-.05.56-.56.07-.49Z"/><path d="M270,65.63a29.42,29.42,0,0,0-6,1.06c-.43.13-.33.54.11.41a28.26,28.26,0,0,1,5.77-1c.37,0,.59-.5.09-.45Z"/><path d="M272.75,64.47C264,67.07,255,68,246,68.69c-.38,0-.58.5-.08.46,9.13-.71,18.19-1.63,27-4.25.43-.13.32-.56-.12-.43Z"/><path d="M246.35,68.78q-10.41.8-20.84.92c-.16,0-.82.31-.47.3q10.52-.12,21-.92c.19,0,.79-.33.31-.3Z"/><path d="M246.51,68.53q-10.62.78-21.26,1c-.27,0-.77.42-.28.41q10.74-.24,21.44-1c.36,0,.6-.44.1-.41Z"/><path d="M245.94,68.76l-1.5.2c-.32,0-.63.4-.12.33l1.5-.2c.32,0,.63-.39.12-.33Z"/><path d="M246.08,68.81l-.78,0c-.2,0-.78.35-.3.32l.77,0c.21,0,.78-.34.31-.31Z"/><path d="M245,68.75l-1.73.09c-.4,0-.57.53-.07.5l1.73-.09c.39,0,.56-.53.07-.5Z"/><path d="M245.58,68.72l-.73,0c-.32,0-.76.43-.27.47l.73,0c.31,0,.75-.43.27-.46Z"/><path d="M226.35,69.47c-5.52-.12-11.31.19-16.76-.78-.23,0-.85.32-.44.39,5.52,1,11.33.68,16.92.8.28,0,.77-.39.28-.41Z"/><path d="M225.14,69.63c-3.17,0-6.35-.07-9.52-.18-2.85-.1-7,.12-9.17-2-.22-.22-.91.08-.66.31,1.91,1.84,5,2,7.54,2.12,3.91.22,7.83.24,11.74.27.41,0,.57-.51.07-.51Z"/><path d="M206.76,53.71c-1.45,1.61-1.66,3.52-1.68,5.62a30.48,30.48,0,0,0,.75,8.84c.07.25.8,0,.72-.2a26.13,26.13,0,0,1-.72-6.84c-.06-2.61-.26-5.33,1.6-7.41.21-.23-.51-.19-.67,0Z"/><path d="M207.66,68.61c-.34-.25-.93-.54-1.12-.94s-.84,0-.73.2c.24.5.85.8,1.28,1.11.21.15.87-.15.57-.37Z"/><path d="M205.77,68c.16.45.72.71,1.13.9a5.08,5.08,0,0,0,1.8.45c.15,0,.41,0,.51-.13s.12-.22-.06-.24a4.55,4.55,0,0,1-1.5-.34c-.39-.16-1-.4-1.15-.84-.08-.23-.8,0-.73.2Z"/><path d="M209.81,69a4.09,4.09,0,0,1-1.75-.45c-.31-.15-.83.3-.42.5a5,5,0,0,0,2.11.49c.41,0,.55-.53.06-.54Z"/><path d="M210.86,69.3c-.79-.16-1.58-.34-2.35-.55a.69.69,0,0,0-.51.08c-.06,0-.25.18-.08.23.82.22,1.65.41,2.48.58.18,0,.84-.26.46-.34Z"/><path d="M210.72,69.36c-1.15-.44-2.37-.53-3.51-1-.22-.09-.88.22-.58.35,1.14.48,2.37.57,3.51,1,.22.08.88-.24.58-.35Z"/><path d="M211.45,69.36c-1.81-.17-4.73-.51-5.52-2.51a11.37,11.37,0,0,1-.26-3.09c-.12-2.56-.35-5.47.54-7.93.09-.26-.64-.17-.73.08-1.08,3-.83,7.15-.39,10.27.42,2.95,3.47,3.37,6.09,3.62.3,0,.76-.39.27-.44Z"/><path d="M320.69,44c-.37.32-.76.63-1.16.92s-1.45,1-2.07.83c-.16,0-.69,0-.66.26l0,.21c0,.21.76.05.73-.19l0-.21-.66.26c1.56.4,3.31-1.07,4.4-2,.3-.26-.42-.22-.58-.08Z"/><path d="M320.7,44.32c-.41.26-.73.63-1.15.89a5.15,5.15,0,0,1-2.24.76c-.23,0-.78.38-.3.35a6.07,6.07,0,0,0,2.17-.57c.29-.13.6-.26.88-.42s.68-.61,1.08-.86-.24-.27-.44-.15Z"/><path d="M206.53,69.37c13,1.72,26.07,1.31,39.12.23,10.15-.84,21-1.09,30.25-5.78.43-.22-.23-.23-.42-.14-10.53,5.35-23.81,5.26-35.39,6a167.19,167.19,0,0,1-33.1-.66c-.18,0-.84.27-.46.32Z"/><path d="M205.81,68.37a4.73,4.73,0,0,0,2.76,1.13c3.79.68,7.94.6,11.77.74A223,223,0,0,0,243,70a184.56,184.56,0,0,0,22.13-2.51c3.68-.69,9.06-1.37,11.44-4.64.21-.29-.52-.26-.68,0-3.26,4.49-13.12,4.7-18.12,5.35q-8.3,1.07-16.64,1.52-8.79.47-17.6.26-3.93-.1-7.86-.33c-2.51-.15-7.23.28-9.22-1.48-.21-.18-.9.1-.67.3Z"/><path d="M207,69.62a236.23,236.23,0,0,0,36.57.37c10.2-.68,21.58-.89,31.09-5,1.41-.6.1-1.08-.8-.7-9.95,4.25-22.64,4.29-33.31,4.83a228.94,228.94,0,0,1-32.18-.58c-.58,0-2.52.94-1.37,1Z"/><path d="M269.07,65.43c-5,1-10.06,1.78-15.12,2.53-1,.16-1.79,1.45-.29,1.23,5.26-.78,10.5-1.58,15.71-2.64,1.33-.27,1-1.38-.3-1.12Z"/><path class="cls-7" d="M266.07,66.65,269.36,164s1.25,9.65.5,11.83,2.24,51.45,6.93,54c.82,1,2.39-.48,2.39-.48l40-40s2.57-20.57,1.69-26-.87-26.76-.31-27.68,3.3-2.07.57-14.32,0-78.5,0-78.5L317.9,32.09s-32.46,12-45.21,14.6c1.87,1.21,4.7,1.5,4.35,10.7-.1,2.53.52,3.5-.39,4.88C275.06,64.68,271,66.46,266.07,66.65Z"/><path class="cls-8" d="M276.47,50.59c.08-.16,0-.29-.17-.36.06-.25-.31-.42-1.05-.3-10.81,1.76-21.67,3.19-32.58,4.21l-2.62.26a146.89,146.89,0,0,1-25.08,0,1.69,1.69,0,0,0-.32,0c-.68-.13-1.37-.26-2.06-.33a21.76,21.76,0,0,1-3-.3,1.75,1.75,0,0,0-.33,0L209,53.7c-.66-.23-3.23.84-2.38,1.13l.2.06c-.38.22-.56.43-.24.5A78.89,78.89,0,0,0,226.32,57q6.77,0,13.54-.57H240a113.47,113.47,0,0,0,11.75-1.07,112.25,112.25,0,0,0,18.75-3,31.89,31.89,0,0,0,4.87-.86C276.32,51.25,276.64,50.84,276.47,50.59Z"/><g class="cls-9"><path class="cls-6" d="M149.92,47.19a11.26,11.26,0,0,1-2.78-2.12,4.27,4.27,0,0,1-.89-3.19c0-.79-2.87-.29-2.9.78a4.7,4.7,0,0,0,1.09,3.52,13.58,13.58,0,0,0,3.16,2.36c.76.44,3.44-.7,2.32-1.35Z"/></g></g></g></svg>