<svg xmlns="http://www.w3.org/2000/svg" viewBox="0 0 279.02 210.95">
	<defs>
		<style>
			.cls-1{fill:#fff;}
			.cls-2:hover{fill:red;}
			.cls-1,.cls-2,.cls-3,.cls-4,.cls-5{stroke:#000;stroke-miterlimit:10;}.cls-1,.cls-3{stroke-width:0.25px;}.cls-2{fill:#575756;}.cls-2,.cls-5{stroke-width:0.5px;}.cls-3,.cls-4{fill:none;}.cls-4{stroke-width:0.2px;}.cls-5{fill:#9d9d9c;}</style></defs><title>Asset 2</title><g id="Layer_2" data-name="Layer 2"><g id="Layer_1-2" data-name="Layer 1"><path class="cls-1" d="M3.87,107.28,5,148s-6.68,16.06,21.25,27.75,56.19,7.38,71.69,2.25a45.67,45.67,0,0,0,23.75-17.44c1.94-2.43,23.94-26.5,24.69-27.31s4-3.09,2.06-10.09c0,0,.22-2.25.22-3.28,0-1.44,1.16-34.1,1.16-34.1s-.71.33-.67.53a14.7,14.7,0,0,1-.19,2.82c-.16.17-.8.7-.8.7s-.31-1.24-1-1.38-.82-.23-1.64.49l-25.16,20.22a35.32,35.32,0,0,1-.28,4.22c-.19.31-.81,0-.88-.1s-.25.28-.25.52-.26.78-.51.76-.58-.14-.6-.34-1.3-2.51-.79-2.33-7.41,4.14-13.38,6c-4.23,1.33-15.47,3.34-15.47,3.34a41.28,41.28,0,0,1-.68,4.22c-.22.37-1.33.45-1.47.17a1,1,0,0,0-1.61,0c-.56.72-1.69.66-1.75.39a24.14,24.14,0,0,0-1.06-3.51c-.12-.1-8.15.66-16.4.67s-16.71-.72-16.71-.72-.58,4.08-1,4.23-1.15-.06-1.25-.32a1,1,0,0,0-1.55-.58c-.95.5-1.85.64-2.07-.33a18.25,18.25,0,0,0-.82-3.39c-.14-.14-9.81-1.3-18.36-3.83-7.2-2.13-13.5-5.66-13.72-6.06,0,0-.56,3.26-.85,3.22s-.8-.08-.85-.47-.33-1.1-.45-.89-.66.5-.8.14A27.73,27.73,0,0,1,6.34,110C6.39,109.34,3.87,107.28,3.87,107.28Z"/><path class="cls-2" d="M151.23,81.76c-.18-3.62-1.43-3.22-1.43-3.22L150,66.79s0-24.4,0-25.78,0-24.94-.07-27,.78-7.31-2.4-10.19-10.69-2.22-13.88-2.34S98.8.39,95.61.51,61.67,0,49.08.35C40,.6,27.87.57,18.48.67c-3.62,0-5.78-.3-8.78,0C-1,1.73.23,10.57.36,11.57s.75,15.13.69,19.63S1.67,62.26,2,67.76s.69,27.06.69,27.06c-3.29,8.86,1.2,12.46,1.2,12.46s2.52,2.06,2.47,2.73a27.73,27.73,0,0,0,.47,4.19c.14.36.67.06.8-.14s.41.5.45.89.55.42.85.47.85-3.22.85-3.22c.22.4,6.52,3.93,13.72,6.06C32,120.79,41.7,122,41.84,122.09a18.25,18.25,0,0,1,.82,3.39c.22,1,1.12.83,2.07.33a1,1,0,0,1,1.55.58c.1.26.85.48,1.25.32s1-4.23,1-4.23,8.47.73,16.71.72,16.28-.77,16.4-.67A24.14,24.14,0,0,1,82.69,126c.06.27,1.19.33,1.75-.39a1,1,0,0,1,1.61,0c.14.28,1.25.2,1.47-.17a41.28,41.28,0,0,0,.68-4.22s11.24-2,15.47-3.34a71,71,0,0,0,13.27-5.86c0-.13,0-.2.11-.16s0,.08-.11.16c.07.5.89,2,.9,2.17s.35.33.6.34.51-.53.51-.76.19-.58.25-.52.69.41.88.1a35.32,35.32,0,0,0,.28-4.22L145.52,89c.82-.72,1-.63,1.64-.49s1,1.38,1,1.38.64-.53.8-.7a14.7,14.7,0,0,0,.19-2.82c0-.2.67-.53.67-.53S151.42,85.39,151.23,81.76Z"/><path class="cls-3" d="M149,127.24s-31,35.67-37.4,40.58c-2.08,1.59-9.54,6.85-23.42,9.84-10.79,2.32-26.7,2.92-38.91,1.58-12.43-1.36-29.08-7.93-37.59-15.42C6.13,158.9,5.84,153.59,5,148"/><path class="cls-3" d="M17,.66s-4.66.75-5,6.66,1.15,30.44,1.15,31-.69,1.38-.5,2.57S14.17,75.45,14.11,76a6.79,6.79,0,0,0-.56,2.62c.12,1.25,1.56,31.25,1.56,31.25s-1,.75-1,1.44,0,3.36,0,3.36"/><path class="cls-3" d="M1.08,35.58s6.8,4.45,32.68,5,51.1,1.32,68.35-.75S148,30,150,29.64"/><path class="cls-3" d="M1.11,37s7,3.83,30.77,4.63,45.55.81,57.33.16a185.73,185.73,0,0,0,18.88-1.71C109,40,119,38,128.88,35.74c10.57-2.46,21.1-5.29,21.1-5.29"/><path d="M2.31,69.66c0,.77,2.69,2.35,3.26,2.73a38.86,38.86,0,0,0,10.27,4.49c11.69,3.47,24.55,3.78,36.65,4.27C73.76,82,97,82,117.05,73.88A193.3,193.3,0,0,0,149.82,57h0c-12.43,8.05-26.67,15.64-40.93,19.72-12.81,3.67-27,4.6-40.23,4.69-14.8.09-30.06-.29-44.68-2.74-7-1.16-16.88-3.14-21.63-9.05,0,0-.06,0-.06,0v0s.06,0,.06,0Z"/><path class="cls-4" d="M2.12,70.83s5.37,7.28,27.36,9.74,44.57,2.75,57.86,1,20.71-3.16,29.29-6.5S150,57.89,150,57.89"/><path d="M2.67,94.82a20.45,20.45,0,0,0,12.1,15.3c10.75,4.5,29.63,8,44.57,7.83,16.08-.17,29.62-.46,41.67-4.25s15.75-7.25,19.41-10S148.21,83.16,149.05,82a3.7,3.7,0,0,0,.75-3.41s1.48.76.83,2.9-8.56,7.49-10.85,9.24-20.75,16.16-23,17.54-14.57,7.25-23.65,8.48S71,120.24,49,118.82,13.26,111.7,8,107.74.69,99.82,2.67,94.82Z"/><path class="cls-1" d="M109,123.6l1.28,46.79s-7.7,18.45,24.49,31.87,64.73,8.47,82.59,2.59a52.71,52.71,0,0,0,27.37-20c2.23-2.8,27.58-30.44,28.44-31.38s4.61-3.55,2.38-11.59c0,0,.25-2.58.25-3.77,0-1.65,1.33-39.16,1.33-39.16s-.81.38-.77.61a16.55,16.55,0,0,1-.22,3.23c-.18.2-.92.81-.92.81s-.36-1.42-1.13-1.58-.94-.27-1.89.56l-29,23.22a40.12,40.12,0,0,1-.32,4.85c-.22.35-.94,0-1-.11s-.29.32-.29.59-.3.9-.59.88-.67-.16-.68-.4-1.51-2.88-.92-2.67-8.54,4.75-15.41,6.91c-4.88,1.53-17.83,3.84-17.83,3.84a45.12,45.12,0,0,1-.79,4.85c-.25.43-1.53.52-1.69.19a1.19,1.19,0,0,0-1.85,0c-.65.83-2,.76-2,.45a27.71,27.71,0,0,0-1.22-4c-.14-.1-9.39.76-18.89.78s-19.26-.83-19.26-.83-.67,4.69-1.14,4.86-1.33-.07-1.44-.37a1.21,1.21,0,0,0-1.78-.67c-1.1.58-2.14.74-2.39-.37s-.63-3.61-.94-3.9-11.31-1.49-21.15-4.39c-8.31-2.45-15.56-6.51-15.82-7,0,0-.64,3.75-1,3.7s-.92-.09-1-.54-.38-1.26-.52-1-.76.57-.92.16a31.34,31.34,0,0,1-.54-4.81C111.87,126,109,123.6,109,123.6Z"/><path class="cls-5" d="M278.76,94.29c-.22-4.16-1.66-3.7-1.66-3.7l.23-13.49s0-28,0-29.62-.05-28.64-.09-31,.9-8.4-2.77-11.7-12.31-2.55-16-2.69S218.34.82,214.67,1,175.57.39,161.06.78c-10.47.29-24.44.25-35.25.36-4.18.05-6.67-.34-10.12,0-12.39,1.22-10.91,11.38-10.77,12.53s.87,17.37.8,22.54.72,35.68,1.08,42,.79,31.08.79,31.08C103.8,119.46,109,123.6,109,123.6s2.9,2.37,2.85,3.14a31.34,31.34,0,0,0,.54,4.81c.16.41.77.07.92-.16s.47.57.52,1,.63.48,1,.54,1-3.7,1-3.7c.26.46,7.51,4.52,15.82,7,9.84,2.9,21,4.24,21.15,4.39s.69,2.78.94,3.9,1.29,1,2.39.37a1.21,1.21,0,0,1,1.78.67c.11.3,1,.55,1.44.37s1.14-4.86,1.14-4.86,9.76.84,19.26.83,18.75-.88,18.89-.78a27.71,27.71,0,0,1,1.22,4c.07.31,1.37.38,2-.45a1.19,1.19,0,0,1,1.85,0c.16.33,1.44.24,1.69-.19a45.12,45.12,0,0,0,.79-4.85s13-2.31,17.83-3.84c6.21-1.95,14.19-5.86,15.28-6.73,0-.15,0-.22.13-.18s0,.09-.13.18a24,24,0,0,0,1,2.49c0,.24.39.38.68.4s.59-.61.59-.88.22-.66.29-.59.79.46,1,.11a40.12,40.12,0,0,0,.32-4.85l29-23.22c.95-.83,1.11-.72,1.89-.56s1.13,1.58,1.13,1.58.74-.61.92-.81a16.55,16.55,0,0,0,.22-3.23c0-.23.77-.61.77-.61S279,98.45,278.76,94.29Z"/><path class="cls-3" d="M276.21,146.53s-35.69,41-43.08,46.62c-2.4,1.82-11,7.86-27,11.29-12.43,2.67-30.77,3.36-44.84,1.82-14.32-1.57-33.51-9.11-43.3-17.71-6.44-5.65-6.77-11.75-7.76-18.16"/><path class="cls-3" d="M124.05,1.14s-5.37.85-5.76,7.65,1.32,35,1.32,35.61-.79,1.57-.57,2.94,1.8,39.7,1.73,40.27a7.63,7.63,0,0,0-.65,3c.14,1.43,1.8,35.89,1.8,35.89s-1.15.86-1.15,1.65,0,3.86,0,3.86"/><path class="cls-3" d="M105.75,41.24s7.84,5.12,37.65,5.74,58.88,1.51,78.76-.86S275,34.85,277.31,34.42"/><path class="cls-3" d="M105.78,42.91s8.1,4.4,35.46,5.31,52.48.93,66.06.2a216.57,216.57,0,0,0,21.75-2c1.09-.16,12.55-2.38,23.95-5,12.18-2.83,24.31-6.08,24.31-6.08"/><path d="M107.17,80.39c0,.83,2.85,2.52,3.48,2.94a43.55,43.55,0,0,0,11.69,5.23c13.52,4.08,28.42,4.44,42.43,5,24.41,1,51.13,1,74.19-8.18a220.77,220.77,0,0,0,38.16-19.54s0,0,0,0a230.78,230.78,0,0,1-32.12,17c-13.09,5.78-26.44,8.4-40.56,10-12.33,1.41-24.88,1.2-37.26.76-13.71-.48-28.09-.88-41.45-4.2-6.08-1.51-14.35-3.89-18.53-9.09,0,0,0,0,0,0v0s.06,0,.06,0Z"/><path class="cls-4" d="M107,81.73s6.19,8.37,31.52,11.2,51.35,3.15,66.67,1.14,23.86-3.63,33.75-7.46,38.43-19.74,38.43-19.74"/><path d="M107.59,109.29s1.55,12.41,13.93,17.58,34.15,9.16,51.36,9c18.53-.2,34.13-.53,48-4.89s18.15-8.32,22.38-11.48,32-23.6,33-25a4.18,4.18,0,0,0,.86-3.91s1.7.87,1,3.33-9.86,8.6-12.51,10.61-23.9,18.57-26.47,20.15-16.78,8.33-27.24,9.74-25.57,4.07-50.87,2.44-41.19-8.18-47.28-12.73S105.31,115,107.59,109.29Z"/></g></g></svg>