<svg xmlns="http://www.w3.org/2000/svg" width="1500" height="1500"><path fill-rule="evenodd" clip-rule="evenodd" fill="#FFF" d="M14.823 8.195c.021-.231.038-.463.038-.695 0-4.136-3.302-7.5-7.361-7.5C3.441 0 .138 3.364.138 7.499c0 .232.017.464.038.695a.75.75 0 0 0-.152.663l.381 1.449c.105.4.509.638.902.53l.711-.194.902.53.711-.194c.105.4.509.637.902.53a.752.752 0 0 0 .521-.919L3.908 6.243a.735.735 0 0 0-.902-.53.752.752 0 0 0-.52.919l-.711.194-.144.253C1.844 3.967 4.391 1.5 7.5 1.5c3.108 0 5.655 2.468 5.869 5.58a65.719 65.719 0 0 0-.144-.254l-.711-.194a.753.753 0 0 0-.52-.919.735.735 0 0 0-.902.53L9.948 10.59a.752.752 0 0 0 .521.919.736.736 0 0 0 .902-.53l.711.194.835-.491a6.31 6.31 0 0 1-3.964 3.013c.008-.065.019-.128.019-.194 0-.828-.659-1.5-1.472-1.5s-1.472.671-1.472 1.5.659 1.5 1.472 1.5a1.45 1.45 0 0 0 1.06-.463c2.192-.345 4.088-1.739 5.116-3.705l.018.005a.736.736 0 0 0 .902-.53l.381-1.449a.75.75 0 0 0-.154-.664z"/><path fill-rule="evenodd" clip-rule="evenodd" fill="#FFF" d="M29.632 12.86l-3.258-3.259c-.017-.017-.038-.029-.056-.045A6.166 6.166 0 1 0 15 6.167a6.167 6.167 0 0 0 9.556 5.151c.016.018.028.038.045.056l3.259 3.259a1.254 1.254 0 0 0 1.772-1.773zm-8.465-2.664a4.03 4.03 0 1 1 0-8.058 4.03 4.03 0 0 1 0 8.058z"/><path fill="#7A7777" d="M39.717 0L35.5 4.351 31.283 0 30 1.324 35.5 7 41 1.324z"/><path fill="#5B5959" d="M39.717 7L35.5 11.351 31.283 7 30 8.324 35.5 14 41 8.324z"/><path fill-rule="evenodd" clip-rule="evenodd" fill="#FFF" d="M24.737 15.265c-.263-.266-.585-.325-.878-.207L4.16 23.042c-.322.118-.527.473-.527.798s.263.651.586.769l8.635 2.691 2.664 8.694c.088.325.38.562.761.591h.029c.322 0 .615-.207.761-.532l7.874-19.901a.793.793 0 0 0-.206-.887zM6.671 32.109l-4.326 4.37 1.159 1.171 4.326-4.37-1.159-1.171zm-2.345-4.7L0 31.779l1.159 1.171 4.326-4.37-1.159-1.171zM6.989 38.83l1.159 1.171 4.326-4.37-1.159-1.171-4.326 4.37z"/><path fill="#FFF" d="M9 46.476H5.935V44.4c0-.78.5-.961.853-.961h2.163v-3.427L5.972 40c-3.307 0-4.059 2.556-4.059 4.192v2.284H0v3.531h1.912V60h4.022v-9.993h2.714L9 46.476zM34 42.367c-.919.402-1.908.673-2.946.795a5.07 5.07 0 0 0 2.255-2.794c-.991.579-2.088.999-3.257 1.226A5.159 5.159 0 0 0 26.309 40c-2.832 0-5.129 2.261-5.129 5.049 0 .395.045.78.133 1.151a14.639 14.639 0 0 1-10.572-5.276 4.959 4.959 0 0 0-.694 2.539c0 1.752.905 3.297 2.282 4.202a5.17 5.17 0 0 1-2.323-.632l-.001.064c0 2.446 1.768 4.486 4.115 4.951a5.23 5.23 0 0 1-2.316.086c.653 2.006 2.547 3.466 4.791 3.507a10.394 10.394 0 0 1-6.37 2.162c-.414 0-.822-.024-1.224-.071A14.675 14.675 0 0 0 16.862 60c9.435 0 14.593-7.693 14.593-14.366 0-.219-.005-.437-.014-.654 1.002-.71 1.872-1.6 2.559-2.613z"/><g fill="#FFF"><path d="M44 44.798c-2.823 0-5.161 2.298-5.161 5.161 0 2.863 2.298 5.161 5.161 5.161s5.161-2.339 5.161-5.161c0-2.822-2.338-5.161-5.161-5.161zm0 8.468a3.32 3.32 0 0 1-3.306-3.306A3.32 3.32 0 0 1 44 46.654a3.32 3.32 0 0 1 3.306 3.306A3.32 3.32 0 0 1 44 53.266z"/><circle cx="49.363" cy="44.677" r="1.169"/><path d="M52.387 41.653C51.339 40.565 49.847 40 48.153 40h-8.306C36.339 40 34 42.339 34 45.847v8.266c0 1.734.565 3.226 1.694 4.315C36.782 59.476 38.234 60 39.887 60h8.226c1.734 0 3.185-.565 4.234-1.573C53.435 57.379 54 55.887 54 54.153v-8.306c0-1.694-.565-3.145-1.613-4.194zm-.161 12.5c0 1.25-.444 2.258-1.169 2.944-.726.685-1.734 1.048-2.944 1.048h-8.226c-1.21 0-2.218-.363-2.944-1.048-.726-.726-1.089-1.734-1.089-2.984v-8.266c0-1.21.363-2.218 1.089-2.944.685-.685 1.734-1.048 2.944-1.048h8.306c1.21 0 2.218.363 2.944 1.089.685.726 1.089 1.734 1.089 2.903v8.306z"/></g><path fill-rule="evenodd" clip-rule="evenodd" fill="#FFF" d="M10.888 63.716L7.412 60.12a.38.38 0 0 0-.554 0 .422.422 0 0 0 0 .574l2.811 2.902H.394a.402.402 0 0 0-.394.407c0 .224.177.401.394.401h9.275l-2.811 2.907a.415.415 0 0 0 0 .568.38.38 0 0 0 .554 0l3.476-3.596a.413.413 0 0 0 0-.567zM95.163 0H54.837A.84.84 0 0 0 54 .842v6.629a.84.84 0 0 0 .837.842h1.26l12.97 18.399L72.8 40.38c.1.366.43.619.807.619h2.789a.837.837 0 0 0 .807-.619l3.733-13.668 12.97-18.399h1.26A.838.838 0 0 0 96 7.472V.842A.84.84 0 0 0 95.163 0zM75.757 39.315h-1.514l-3.312-12.126h8.138l-3.312 12.126zm3.977-13.811h-9.469L58.148 8.314h33.704l-12.118 17.19zM94.327 6.629H55.673V1.685h38.653v4.944zm-7.074 5.46c.262 0 .52-.123.683-.355l.454-.644a.847.847 0 0 0-.198-1.175.834.834 0 0 0-1.167.199l-.454.644a.846.846 0 0 0 .198 1.175.823.823 0 0 0 .484.156zm-8.577 12.154c.262 0 .52-.124.683-.355l6.839-9.702A.845.845 0 0 0 86 13.012a.834.834 0 0 0-1.167.199l-6.839 9.702a.846.846 0 0 0 .198 1.174.834.834 0 0 0 .484.156z"/><path fill-rule="evenodd" clip-rule="evenodd" fill="#0099CD" d="M105.109 60.976l43.434 6.449c.269.04.543.06.814.06 2.874 0 5.374-2.263 5.816-5.264l7.193-48.804c.492-3.34-1.682-6.438-4.845-6.908L114.087.06a5.53 5.53 0 0 0-.813-.06c-2.874 0-5.374 2.263-5.817 5.264l-7.193 48.804c-.492 3.338 1.682 6.438 4.845 6.908zm-1.564-6.421l.32-2.169 30.362 4.353a1.66 1.66 0 0 0 1.875-1.412c.129-.91-.5-1.753-1.407-1.883l-30.346-4.351 5.299-35.949 25.495 3.744a1.653 1.653 0 0 0 1.881-1.406 1.662 1.662 0 0 0-1.401-1.887l-25.49-3.743.604-4.1c.203-1.381 1.294-2.423 2.536-2.423.109 0 .22.008.328.024l43.433 6.449c1.355.201 2.275 1.605 2.05 3.128l-7.193 48.803c-.204 1.381-1.294 2.423-2.536 2.423-.109 0-.22-.009-.328-.025l-43.433-6.449c-1.354-.2-2.274-1.604-2.049-3.127zm70.191 13.215c.097 0 .195-.002.293-.007l45.057-2.217c3.257-.16 5.777-2.95 5.617-6.219l-2.307-47.209c-.16-3.263-2.919-5.8-6.196-5.637l-45.057 2.217c-3.257.161-5.777 2.951-5.617 6.219l2.307 47.209c.155 3.165 2.748 5.644 5.903 5.644zm-2.431-55.748l45.058-2.217c.044-.002.088-.004.131-.004a2.598 2.598 0 0 1 2.591 2.48l2.307 47.208a2.606 2.606 0 0 1-2.467 2.731l-45.057 2.217c-1.438.081-2.651-1.042-2.722-2.476l-.253-5.168 20.152-1.838a1.662 1.662 0 0 0 1.501-1.808 1.66 1.66 0 0 0-1.801-1.507l-20.014 1.826-1.892-38.714a2.605 2.605 0 0 1 2.466-2.73zm63.054 52.043l45.168-.448c3.26-.032 5.886-2.721 5.855-5.994l-.467-47.263c-.032-3.24-2.684-5.877-5.913-5.877l-45.168.448c-3.261.033-5.887 2.722-5.854 5.994l.466 47.263c.032 3.242 2.684 5.877 5.913 5.877zm-.492-55.805l45.135-.448a2.61 2.61 0 0 1 2.597 2.581l.361 36.496h-21.464a1.66 1.66 0 0 0-1.658 1.664 1.66 1.66 0 0 0 1.658 1.664h21.497l.073 7.439a2.607 2.607 0 0 1-2.571 2.633l-45.109.448h-.027a2.61 2.61 0 0 1-2.597-2.581l-.466-47.263a2.605 2.605 0 0 1 2.571-2.633zm-91.568 26.584c0-6.57-5.325-11.914-11.872-11.914s-11.872 5.345-11.872 11.914c0 6.57 5.326 11.915 11.872 11.915 6.546-.001 11.872-5.346 11.872-11.915zm-11.872 8.586c-4.718 0-8.555-3.852-8.555-8.586s3.838-8.586 8.555-8.586 8.556 3.852 8.556 8.586c0 4.735-3.838 8.586-8.556 8.586zm63.269-2.651c6.546 0 11.872-5.344 11.872-11.914s-5.326-11.914-11.872-11.914-11.872 5.345-11.872 11.914 5.326 11.914 11.872 11.914zm0-20.501c4.717 0 8.555 3.852 8.555 8.586s-3.838 8.586-8.555 8.586c-4.718 0-8.556-3.852-8.556-8.586s3.838-8.586 8.556-8.586zm64.402 21.924c6.546 0 11.872-5.344 11.872-11.914 0-6.57-5.326-11.914-11.872-11.914s-11.871 5.345-11.871 11.914c0 6.57 5.325 11.914 11.871 11.914zm0-20.5c4.717 0 8.555 3.852 8.555 8.586 0 4.735-3.838 8.586-8.555 8.586s-8.555-3.852-8.555-8.586 3.838-8.586 8.555-8.586zM97.172 70.603c17.848 5.498 45.711 7.213 71.619 7.213 17.655 0 34.403-.796 46.453-1.735 32.515-2.532 68.825-4.534 69.188-4.553a1.662 1.662 0 0 0 1.565-1.753 1.664 1.664 0 0 0-1.746-1.571c-.364.02-36.711 2.023-69.264 4.558-29.5 2.297-87.306 3.757-116.843-5.342a1.658 1.658 0 0 0-2.072 1.102 1.67 1.67 0 0 0 1.1 2.081zm187.079 17.963c-.364.02-36.711 2.023-69.264 4.558-29.499 2.297-87.305 3.758-116.842-5.341a1.658 1.658 0 0 0-2.072 1.102 1.665 1.665 0 0 0 1.099 2.079c17.849 5.498 45.711 7.213 71.618 7.213 17.654 0 34.404-.796 46.454-1.735 32.515-2.532 68.825-4.533 69.188-4.553a1.661 1.661 0 0 0 1.565-1.752 1.662 1.662 0 0 0-1.746-1.571zM98.145 80.519a1.658 1.658 0 0 0-2.072 1.102 1.667 1.667 0 0 0 1.099 2.08c17.849 5.498 45.711 7.213 71.619 7.213 17.655 0 34.404-.796 46.453-1.735a1.662 1.662 0 0 0 1.525-1.788 1.66 1.66 0 0 0-1.781-1.531c-29.5 2.297-87.306 3.758-116.843-5.341zm141.839 2.889a1.66 1.66 0 0 0-1.571 1.746 1.66 1.66 0 0 0 1.74 1.578l37.661-1.922a1.662 1.662 0 0 0-.168-3.323l-37.662 1.921zm35.192 18.576h-17.235a1.66 1.66 0 0 0-1.658 1.664 1.66 1.66 0 0 0 1.658 1.664h17.235a1.66 1.66 0 0 0 1.658-1.664 1.66 1.66 0 0 0-1.658-1.664zm-36.384 3.203h-9.575a1.66 1.66 0 0 0-1.658 1.664 1.66 1.66 0 0 0 1.658 1.664h9.575a1.66 1.66 0 0 0 1.658-1.664c0-.919-.743-1.664-1.658-1.664zm-39.576 3.203h-9.574a1.66 1.66 0 0 0-1.658 1.664 1.66 1.66 0 0 0 1.658 1.664h9.574a1.66 1.66 0 0 0 1.658-1.664c0-.919-.743-1.664-1.658-1.664zm-33.832-4.484h-14.043a1.66 1.66 0 0 0-1.658 1.664 1.66 1.66 0 0 0 1.658 1.664h14.043a1.66 1.66 0 0 0 1.658-1.664 1.66 1.66 0 0 0-1.658-1.664zm-33.83 3.203h-5.745a1.66 1.66 0 0 0-1.658 1.664 1.66 1.66 0 0 0 1.658 1.664h5.745a1.66 1.66 0 0 0 1.658-1.664c0-.919-.743-1.664-1.658-1.664zm-12.129-7.688h-8.936a1.66 1.66 0 0 0-1.658 1.664 1.66 1.66 0 0 0 1.658 1.664h8.936a1.66 1.66 0 0 0 1.658-1.664 1.66 1.66 0 0 0-1.658-1.664zm-10.851 10.25h-9.575a1.66 1.66 0 0 0-1.658 1.664 1.66 1.66 0 0 0 1.658 1.664h9.575a1.66 1.66 0 0 0 1.658-1.664c0-.919-.743-1.664-1.658-1.664z"/><path fill-rule="evenodd" clip-rule="evenodd" fill="#949494" d="M51.46 79.626L27.319 68.087a.912.912 0 0 0-1.11.269.983.983 0 0 0-.022 1.181l7.939 10.962-7.939 10.962a.987.987 0 0 0 .02 1.181c.18.233.449.358.722.358a.888.888 0 0 0 .388-.089l24.141-11.539a.962.962 0 0 0 .54-.873.962.962 0 0 0-.538-.873z"/><path fill-rule="evenodd" clip-rule="evenodd" fill="#949494" d="M17.874 80.501l7.939-10.962a.986.986 0 0 0-.021-1.181.912.912 0 0 0-.722-.358.888.888 0 0 0-.388.089L.54 79.628a.963.963 0 0 0-.54.873c0 .375.21.715.539.873L24.68 92.913a.912.912 0 0 0 1.11-.269.983.983 0 0 0 .022-1.181l-7.938-10.962z"/><path fill="#0099CD" d="M287.429 2.8h17.143c.788 0 1.428-.627 1.428-1.4s-.64-1.4-1.429-1.4h-17.143C286.64 0 286 .627 286 1.4s.64 1.4 1.429 1.4zm17.142 2.8h-17.143C286.64 5.6 286 6.227 286 7s.64 1.4 1.429 1.4h17.143C305.36 8.4 306 7.773 306 7s-.64-1.4-1.429-1.4zm0 5.6h-17.143c-.789 0-1.429.627-1.429 1.4 0 .773.64 1.4 1.429 1.4h17.143c.789 0 1.429-.627 1.429-1.4 0-.773-.64-1.4-1.429-1.4z"/></svg>